<svg width="200" height="200" viewBox="0 0 200 200" fill="none" xmlns="http://www.w3.org/2000/svg">
<path d="M135.832 56.846C135.299 53.38 132.366 49.8 129.624 48.067C129.338 47.877 129.053 47.705 128.767 47.534C122.559 51.834 111.208 58.789 97.8767 60.903C96.8487 61.074 95.5917 60.826 94.8107 61.531C92.3547 63.721 91.8597 71.377 85.7847 71.548C84.9457 73.682 84.1847 75.738 83.3657 77.49C84.3587 76.099 91.6157 77.418 93.4587 77.833C95.2667 78.233 103.066 80.358 102.734 82.023C104.105 79.07 103.572 76.081 102.677 72.957C113.551 70.863 128.615 63.169 135.832 56.846Z" fill="url(#paint0_linear_205_849)"/>
<path d="M40.7268 88.974C38.7927 90.8331 36.3507 92.0769 33.7096 92.5481C31.0686 93.0193 28.3471 92.6968 25.8894 91.6213C23.4317 90.5458 21.3481 88.7656 19.9021 86.5059C18.4561 84.2462 17.7127 81.6085 17.7658 78.9263C17.819 76.2441 18.6663 73.6378 20.2007 71.4372C21.735 69.2365 23.8875 67.5403 26.3859 66.563C28.8843 65.5857 31.6164 65.3713 34.2367 65.9467C36.857 66.5222 39.2478 67.8617 41.1068 69.796C42.3422 71.0796 43.3125 72.5941 43.9621 74.253C44.6117 75.9119 44.9279 77.6826 44.8927 79.4638C44.8574 81.245 44.4713 83.0017 43.7564 84.6336C43.0416 86.2654 42.0121 87.7404 40.7268 88.974Z" fill="url(#paint1_linear_205_849)"/>
<path d="M186.489 142.278C187.86 137.536 192.431 138.983 194.945 136.126C195.402 140.488 193.002 144.868 188.66 145.077L186.489 142.278Z" fill="url(#paint2_linear_205_849)"/>
<path d="M83.137 151.666C81.404 152.676 78.167 150.581 74.625 146.581C74.6869 147.961 75.0784 149.307 75.767 150.505C78.167 154.999 78.053 166.083 80.719 165.305C81.462 165.076 82.338 161.305 83.119 156.983C83.5232 154.895 84.0576 152.834 84.719 150.812C84.388 150.981 83.469 151.445 83.137 151.666Z" fill="url(#paint3_linear_205_849)"/>
<path d="M94.2212 56.161C94.5709 57.1777 95.0858 58.1298 95.7452 58.979C97.4202 58.732 99.2822 58.224 99.6292 57.456C99.6899 57.3266 99.741 57.1929 99.7822 57.056C99.3442 58.446 96.8112 57.513 94.2212 56.161Z" fill="url(#paint4_linear_205_849)"/>
<path d="M96.4678 45.934C93.0968 42.392 82.1088 45.172 74.6628 50.562C67.1788 55.97 69.3308 61.036 79.0238 58.713C78.4528 58.884 72.2439 60.75 68.1879 65.413C62.2269 72.269 67.4068 74.897 74.0878 73.526C82.0668 71.888 88.9228 65.337 91.2458 60.804C92.3128 58.1333 93.0365 55.3379 93.3998 52.485C90.6198 50.219 92.3148 48.162 93.8378 49.724C94.6568 50.562 95.5708 50.162 94.5618 47.424C95.5788 46.793 96.7999 46.591 96.4678 45.934Z" fill="url(#paint5_linear_205_849)"/>
<path d="M121.892 156.656C121.54 152.134 121.591 147.59 122.044 143.077C118.431 144.097 114.598 144.038 111.018 142.906C111.094 146.068 110.104 147.667 110.923 149.629C111.415 150.729 112.113 151.724 112.979 152.561C116.56 156.18 119.626 166.844 121.968 165.321C122.616 164.9 122.368 161.036 121.892 156.656Z" fill="url(#paint6_linear_205_849)"/>
<path d="M86.0701 76.881C85.8988 77.7648 85.6306 78.6271 85.2701 79.452C82.1661 77.909 82.8901 76.9 86.0701 76.881Z" fill="url(#paint7_linear_205_849)"/>
<path d="M102.753 82C102.676 82.362 102.162 82.591 101.305 82.7C101.629 82.11 101.915 81.576 102.162 81.043C102.6 81.413 102.809 81.737 102.753 82Z" fill="url(#paint8_linear_205_849)"/>
<path d="M111.284 111.217L109.284 116.949C109.208 114.721 109.132 112.531 109.093 110.379L111.284 111.217Z" fill="url(#paint9_linear_205_849)"/>
<path d="M42.891 151.685C37.777 142.931 30.991 135.475 27.785 136.71C23.446 138.382 29.333 151.79 32.709 157.646C38.384 167.473 45.24 174.138 48.1 172.6C52.257 170.284 45.466 156.092 42.891 151.685Z" fill="url(#paint10_linear_205_849)"/>
<path d="M78.0531 131.061C72.4161 121.31 65.5791 114.721 62.7601 116.361C59.9231 117.998 62.2081 127.216 67.8261 136.966C73.4441 146.716 80.3001 153.287 83.1181 151.666C85.9561 150.029 83.6711 140.811 78.0531 131.061Z" fill="url(#paint11_linear_205_849)"/>
<path d="M84.718 150.809C84.0585 152.831 83.5242 154.892 83.118 156.98C82.346 161.304 81.463 165.08 80.718 165.302C78.057 166.102 78.157 155.002 75.766 150.502C75.076 149.305 74.6843 147.959 74.624 146.578" stroke="#505050" stroke-width="0.75" stroke-linecap="round" stroke-linejoin="round"/>
<path d="M150.629 79.147C150.249 78.532 149.739 78.0081 149.134 77.6123C148.529 77.2165 147.845 76.9586 147.129 76.8568C146.413 76.755 145.684 76.8118 144.993 77.0231C144.302 77.2345 143.665 77.5953 143.129 78.08C142.917 77.3566 142.54 76.6918 142.03 76.1373C141.519 75.5828 140.887 75.1535 140.183 74.8827C139.48 74.6118 138.723 74.5068 137.972 74.5757C137.221 74.6446 136.497 74.8856 135.854 75.28C135.298 75.6223 134.815 76.071 134.433 76.6004C134.05 77.1298 133.776 77.7295 133.626 78.365C132.835 77.7688 131.883 77.4253 130.894 77.3797C129.905 77.3341 128.925 77.5884 128.083 78.1092C127.241 78.6301 126.576 79.3933 126.175 80.2987C125.774 81.204 125.657 82.2094 125.837 83.183C125.194 83.0146 124.524 82.9768 123.867 83.0717C123.209 83.1667 122.578 83.3926 122.009 83.736C121.367 84.1301 120.825 84.6663 120.423 85.3033C120.021 85.9403 119.771 86.661 119.692 87.4099C119.613 88.1588 119.707 88.9159 119.967 89.6228C120.226 90.3297 120.645 90.9675 121.19 91.487C120.522 91.7502 119.92 92.1562 119.426 92.6765C118.932 93.1968 118.557 93.8189 118.329 94.4991C118.1 95.1794 118.023 95.9014 118.103 96.6146C118.182 97.3278 118.417 98.015 118.79 98.628C119.311 99.4894 120.09 100.166 121.015 100.562C121.941 100.958 122.968 101.054 123.951 100.837L150.536 84.537C151.205 84.134 152.018 81.39 150.629 79.147Z" stroke="#505050" stroke-width="0.75" stroke-linecap="round" stroke-linejoin="round"/>
<path d="M130.462 86.707C131.09 87.2989 131.495 88.0891 131.609 88.9447C131.723 89.8003 131.539 90.669 131.087 91.4046C130.635 92.1402 129.944 92.6977 129.13 92.9834C128.315 93.269 127.427 93.2654 126.615 92.973" stroke="#505050" stroke-width="0.75" stroke-linecap="round" stroke-linejoin="round"/>
<path d="M142.307 83.356C142.201 84.1264 141.861 84.8453 141.331 85.4145C140.801 85.9836 140.108 86.3752 139.348 86.5357C138.587 86.6962 137.795 86.6176 137.08 86.3109C136.366 86.0041 135.764 85.4841 135.356 84.822C135.183 84.5361 135.049 84.2288 134.956 83.908" stroke="#505050" stroke-width="0.75" stroke-linecap="round" stroke-linejoin="round"/>
<path d="M143.126 78.08C142.614 78.5629 142.189 79.1302 141.869 79.757" stroke="#505050" stroke-width="0.75" stroke-linecap="round" stroke-linejoin="round"/>
<path d="M122.924 91.166C122.333 91.1957 121.749 91.304 121.187 91.488" stroke="#505050" stroke-width="0.75" stroke-linecap="round" stroke-linejoin="round"/>
<path d="M133.623 78.366C133.498 78.9866 133.478 79.6236 133.562 80.251" stroke="#505050" stroke-width="0.75" stroke-linecap="round" stroke-linejoin="round"/>
<path d="M127.721 84.067C127.15 83.6627 126.511 83.3637 125.834 83.184" stroke="#505050" stroke-width="0.75" stroke-linecap="round" stroke-linejoin="round"/>
<path d="M157.409 90.154C155.996 87.827 153.08 87.412 152.572 87.793L125.967 104.114C125.206 104.571 124.161 107.336 125.606 109.674C125.982 110.285 126.487 110.807 127.085 111.202C127.684 111.598 128.362 111.857 129.072 111.962C129.782 112.066 130.506 112.014 131.194 111.809C131.881 111.604 132.516 111.251 133.052 110.774C133.357 111.823 134.005 112.74 134.891 113.379C135.777 114.018 136.851 114.342 137.943 114.301C139.035 114.259 140.082 113.854 140.917 113.149C141.752 112.445 142.327 111.481 142.552 110.412C143.338 111.014 144.288 111.365 145.277 111.418C146.266 111.472 147.248 111.225 148.095 110.71C148.941 110.195 149.612 109.437 150.02 108.534C150.427 107.631 150.552 106.626 150.379 105.651C151.434 105.918 152.548 105.827 153.546 105.393C154.544 104.958 155.37 104.204 155.893 103.25C156.416 102.295 156.607 101.194 156.436 100.118C156.265 99.0433 155.742 98.0555 154.949 97.31C155.624 97.0539 156.235 96.6523 156.738 96.1336C157.24 95.615 157.623 94.992 157.858 94.309C158.092 93.6259 158.174 92.8996 158.096 92.1815C158.019 91.4634 157.784 90.7712 157.409 90.154Z" stroke="#505050" stroke-width="0.75" stroke-linecap="round" stroke-linejoin="round"/>
<path d="M141.507 104.723C141.311 104.06 140.937 103.464 140.425 103C139.913 102.536 139.284 102.222 138.605 102.092C137.926 101.962 137.225 102.022 136.578 102.264C135.931 102.507 135.363 102.922 134.937 103.466C134.52 104.003 134.251 104.64 134.156 105.313" stroke="#505050" stroke-width="0.75" stroke-linecap="round" stroke-linejoin="round"/>
<path d="M149.868 95.7C149.135 95.4469 148.341 95.426 147.595 95.6402C146.85 95.8545 146.188 96.2933 145.701 96.8971C145.214 97.5009 144.924 98.2401 144.873 99.0142C144.821 99.7883 145.009 100.56 145.411 101.223C145.583 101.511 145.795 101.774 146.04 102.004" stroke="#505050" stroke-width="0.75" stroke-linecap="round" stroke-linejoin="round"/>
<path d="M154.952 97.315C154.281 97.563 153.572 97.6919 152.857 97.696" stroke="#505050" stroke-width="0.75" stroke-linecap="round" stroke-linejoin="round"/>
<path d="M134.106 109.4C133.821 109.908 133.466 110.373 133.052 110.783" stroke="#505050" stroke-width="0.75" stroke-linecap="round" stroke-linejoin="round"/>
<path d="M150.382 105.656C149.769 105.48 149.189 105.205 148.665 104.842" stroke="#505050" stroke-width="0.75" stroke-linecap="round" stroke-linejoin="round"/>
<path d="M142.609 108.377C142.7 109.056 142.681 109.744 142.555 110.417" stroke="#505050" stroke-width="0.75" stroke-linecap="round" stroke-linejoin="round"/>
<path d="M125.967 104.114L123.13 105.827" stroke="#505050" stroke-width="0.75" stroke-linecap="round" stroke-linejoin="round"/>
<path d="M123.949 100.838L121.149 102.533" stroke="#505050" stroke-width="0.75" stroke-linecap="round" stroke-linejoin="round"/>
<path d="M109.19 114.302L78.9482 132.66" stroke="#505050" stroke-width="0.75" stroke-linecap="round" stroke-linejoin="round"/>
<path d="M108.58 110.169L77.0239 129.347" stroke="#505050" stroke-width="0.75" stroke-linecap="round" stroke-linejoin="round"/>
<path d="M135.432 57.189C142.205 56.5625 149.015 57.9062 155.042 61.0584C161.069 64.2105 166.058 69.0369 169.407 74.957C179.523 92.342 174.224 114.795 157.58 125.1C147.169 131.546 144.28 128.138 124.063 133.9" stroke="#505050" stroke-width="0.75" stroke-linecap="round" stroke-linejoin="round"/>
<path d="M83.3359 151.518C92.5839 146.695 100.849 142.479 109.361 139.002" stroke="#505050" stroke-width="0.75" stroke-linecap="round" stroke-linejoin="round"/>
<path d="M84.3942 100.133C77.9772 105.275 70.9492 110.284 62.7412 116.34" stroke="#505050" stroke-width="0.75" stroke-linecap="round" stroke-linejoin="round"/>
<path d="M111.97 70.234C107.979 76.2346 103.501 81.8969 98.582 87.164" stroke="#505050" stroke-width="0.75" stroke-linecap="round" stroke-linejoin="round"/>
<path d="M128.748 47.553C131.966 49.362 135.242 53.076 135.832 56.846C128.614 63.169 113.551 70.863 102.677 72.957C103.572 76.081 104.105 79.071 102.734 82.023C103.066 80.36 95.3812 78.262 93.4592 77.833C91.5832 77.414 84.3512 76.112 83.3662 77.49C84.1852 75.738 84.9472 73.681 85.7852 71.548C91.8602 71.377 92.3452 63.71 94.8112 61.531C95.5882 60.845 96.8112 61.075 97.8772 60.903C111.2 58.736 122.559 51.838 128.767 47.534L128.748 47.553Z" stroke="#505050" stroke-width="0.75" stroke-linecap="round" stroke-linejoin="round"/>
<path d="M84.4561 80.88C89.9082 80.7933 95.2776 82.2194 99.9681 85" stroke="#505050" stroke-width="0.75" stroke-linecap="round" stroke-linejoin="round"/>
<path d="M99.6942 57.259C99.0732 58.345 96.6732 57.441 94.2212 56.159C94.5706 57.1758 95.0856 58.128 95.7452 58.977" stroke="#505050" stroke-width="0.75" stroke-linecap="round" stroke-linejoin="round"/>
<path d="M97.1711 60.974C95.8441 60.648 96.1991 60.002 95.7451 58.979C99.3251 58.45 99.9451 57.791 99.7981 55.997C99.5831 53.391 98.0531 47.713 96.4681 45.934" stroke="#505050" stroke-width="0.75" stroke-linecap="round" stroke-linejoin="round"/>
<path d="M102.677 72.957C101.572 73.167 100.506 73.319 99.5151 73.415" stroke="#505050" stroke-width="0.75" stroke-linecap="round" stroke-linejoin="round"/>
<path d="M94.5639 47.42C95.5729 50.162 94.6639 50.562 93.8399 49.72C92.3159 48.159 90.6219 50.22 93.4019 52.481C93.0395 55.3349 92.3164 58.1312 91.2499 60.803C88.9269 65.336 82.0709 71.887 74.0919 73.525C67.4069 74.896 62.2269 72.268 68.1919 65.412C72.2479 60.746 78.4569 58.88 79.0279 58.712C69.3349 61.035 67.1849 55.972 74.6669 50.561C82.1149 45.174 93.1009 42.391 96.4719 45.933C96.7939 46.585 95.5429 46.815 94.5639 47.42Z" stroke="#505050" stroke-width="0.75" stroke-linecap="round" stroke-linejoin="round"/>
<path d="M85.7852 71.548C86.791 68.8266 88.0872 66.2216 89.6512 63.778C90.2695 62.8529 90.7986 61.8711 91.2312 60.846" stroke="#505050" stroke-width="0.75" stroke-linecap="round" stroke-linejoin="round"/>
<path d="M98.6108 87.134C99.9315 85.1893 101.121 83.1588 102.172 81.056" stroke="#505050" stroke-width="0.75" stroke-linecap="round" stroke-linejoin="round"/>
<path d="M139.984 46.62C142.859 45.934 145.226 47.23 145.03 48.334C144.986 48.5553 144.895 48.7647 144.764 48.9484C144.632 49.1322 144.464 49.286 144.269 49.4" stroke="#505050" stroke-width="0.75" stroke-linecap="round" stroke-linejoin="round"/>
<path d="M139.717 44.868C142.745 44.144 145.754 45.668 144.459 47.268" stroke="#505050" stroke-width="0.75" stroke-linecap="round" stroke-linejoin="round"/>
<path d="M135.508 55.475C137.3 53.4296 139.599 51.8927 142.174 51.019" stroke="#505050" stroke-width="0.75" stroke-linecap="round" stroke-linejoin="round"/>
<path d="M139.869 48.676C142.669 48.105 144.513 49.209 144.402 50.295C144.265 51.628 141.602 53.647 139.355 52.352" stroke="#505050" stroke-width="0.75" stroke-linecap="round" stroke-linejoin="round"/>
<path d="M137.508 43.858C137.546 43.82 138.708 42.202 138.194 41.687C137.756 41.249 131.433 46.448 129.662 48.105" stroke="#505050" stroke-width="0.75" stroke-linecap="round" stroke-linejoin="round"/>
<path d="M141.145 44.677C146.173 42.259 147.523 39.342 146.573 39.877C143.403 41.464 140.147 42.8754 136.822 44.105C134.248 45.0843 131.83 46.4316 129.643 48.105" stroke="#505050" stroke-width="0.75" stroke-linecap="round" stroke-linejoin="round"/>
<path d="M122.044 143.077C121.595 147.59 121.544 152.134 121.892 156.656C122.377 161.035 122.615 164.901 121.968 165.321C119.624 166.842 116.553 156.187 112.979 152.561C112.111 151.725 111.413 150.729 110.923 149.629C110.102 147.664 111.097 146.062 111.017 142.89" stroke="#505050" stroke-width="0.75" stroke-linecap="round" stroke-linejoin="round"/>
<path d="M78.0532 131.061C83.6782 140.807 85.9582 150.032 83.1182 151.661C80.3022 153.283 73.4442 146.71 67.8262 136.961C62.2082 127.212 59.9252 118 62.7602 116.359C65.5952 114.718 72.4232 121.306 78.0532 131.061Z" stroke="#505050" stroke-width="0.75" stroke-linecap="round" stroke-linejoin="round"/>
<path d="M49.1481 167.232C47.7241 158.369 39.1641 143.623 32.2141 138.298C28.6241 135.517 26.0531 136.009 26.3471 140.673C26.9051 149.523 36.7601 166.597 44.1161 171.607C48.2001 174.387 49.9561 172.263 49.1481 167.232Z" stroke="#505050" stroke-width="0.75" stroke-linecap="round" stroke-linejoin="round"/>
<path d="M48.2888 172.5L53.9428 169.229C54.4875 168.802 54.8578 168.191 54.9841 167.511C55.1104 166.831 54.984 166.128 54.6288 165.534C56.8788 168.923 61.2938 165.424 59.5228 162.487C61.1658 165.287 66.3318 163.479 64.2078 159.231C64.6892 159.855 65.3753 160.288 66.1451 160.455C66.9149 160.623 67.7191 160.513 68.4158 160.145C70.7158 158.677 69.8628 155.822 68.4358 151.175C65.7666 143.194 61.5323 135.825 55.9808 129.5C54.6466 127.911 53.1191 126.494 51.4338 125.284C48.7688 123.631 45.7708 124.87 46.8018 129.367C45.9538 127.954 44.9588 127.03 43.2778 127.481C42.8534 127.599 42.4621 127.814 42.1346 128.108C41.807 128.403 41.5521 128.769 41.3899 129.179C41.2276 129.588 41.1624 130.03 41.1994 130.469C41.2363 130.908 41.3744 131.332 41.6028 131.709C41.6028 131.709 39.6298 129.215 37.3938 130.986C36.8385 131.419 36.4644 132.043 36.3446 132.736C36.2248 133.43 36.3678 134.143 36.7458 134.737C36.5658 134.419 36.3246 134.141 36.0362 133.917C35.7478 133.693 35.418 133.529 35.0656 133.433C34.7133 133.337 34.3456 133.313 33.9836 133.36C33.6216 133.407 33.2727 133.526 32.9568 133.709L27.6348 136.771" stroke="#505050" stroke-width="0.75" stroke-linecap="round" stroke-linejoin="round"/>
<path d="M186.489 142.278C184.14 143.575 181.888 145.039 179.748 146.658C173.462 151.513 167.331 157.608 168.148 158.675C168.965 159.742 176.396 155.364 182.697 150.505C184.809 148.845 186.795 147.031 188.639 145.077" stroke="#505050" stroke-width="0.75" stroke-linecap="round" stroke-linejoin="round"/>
<path d="M186.489 142.278C187.86 137.536 192.431 138.983 194.945 136.126C195.402 140.488 193.002 144.868 188.66 145.077L186.489 142.278Z" stroke="#505050" stroke-width="0.75" stroke-linecap="round" stroke-linejoin="round"/>
<path d="M180.538 146.061L183.48 149.876" stroke="#505050" stroke-width="0.75" stroke-linecap="round" stroke-linejoin="round"/>
<path d="M190.965 51.057L188.47 56.646H193.04L190.526 62.236" stroke="#505050" stroke-width="0.75" stroke-linecap="round" stroke-linejoin="round"/>
<path d="M102.162 189.107L92.0308 189.411" stroke="#505050" stroke-width="0.75" stroke-linecap="round" stroke-linejoin="round"/>
<path d="M97.2488 194.325L96.9438 184.193" stroke="#505050" stroke-width="0.75" stroke-linecap="round" stroke-linejoin="round"/>
<path d="M86.0701 76.881C85.8988 77.7648 85.6306 78.627 85.2701 79.452C82.1661 77.909 82.8901 76.9 86.0701 76.881Z" stroke="#505050" stroke-width="0.75" stroke-linecap="round" stroke-linejoin="round"/>
<path d="M102.734 82.023C102.642 82.368 102.153 82.593 101.326 82.705" stroke="#505050" stroke-width="0.75" stroke-linecap="round" stroke-linejoin="round"/>
<path d="M86.0698 76.881C85.7578 79.0445 84.6595 81.0172 82.9848 82.422C75.5008 88.364 75.3848 96.686 80.8518 102.914" stroke="#505050" stroke-width="0.75" stroke-linecap="round" stroke-linejoin="round"/>
<path d="M27.3018 136.979L18.8638 141.763" stroke="#505050" stroke-width="0.75" stroke-linecap="round" stroke-linejoin="round"/>
<path d="M47.9021 172.709L40.3271 177.128" stroke="#505050" stroke-width="0.75" stroke-linecap="round" stroke-linejoin="round"/>
<path d="M36.6698 179.432L31.0518 182.708" stroke="#505050" stroke-width="0.75" stroke-linecap="round" stroke-linejoin="round"/>
<path d="M14.941 144.22L9.20898 147.477" stroke="#505050" stroke-width="0.75" stroke-linecap="round" stroke-linejoin="round"/>
<path d="M32.7279 157.646L14.2739 168.558" stroke="#505050" stroke-width="0.75" stroke-linecap="round" stroke-linejoin="round"/>
<path d="M10.599 170.863L5 174.119" stroke="#505050" stroke-width="0.75" stroke-linecap="round" stroke-linejoin="round"/>
<path d="M40.7268 88.974C38.7927 90.8331 36.3507 92.0769 33.7096 92.5481C31.0686 93.0193 28.3471 92.6968 25.8894 91.6213C23.4317 90.5458 21.3481 88.7656 19.9021 86.5059C18.4561 84.2462 17.7127 81.6085 17.7658 78.9263C17.819 76.2441 18.6663 73.6378 20.2007 71.4372C21.735 69.2365 23.8875 67.5403 26.3859 66.563C28.8843 65.5857 31.6164 65.3713 34.2367 65.9467C36.857 66.5222 39.2478 67.8617 41.1068 69.796C42.3422 71.0796 43.3125 72.5941 43.9621 74.253C44.6117 75.9119 44.9279 77.6826 44.8927 79.4638C44.8574 81.245 44.4713 83.0017 43.7564 84.6336C43.0416 86.2654 42.0121 87.7404 40.7268 88.974Z" stroke="#505050" stroke-width="0.75" stroke-linecap="round" stroke-linejoin="round"/>
<path d="M44.8778 80C49.0868 82 51.5778 83.9 51.2198 85.1C50.5788 87.267 41.1068 86.433 30.0428 83.233C18.9788 80.033 10.5198 75.68 11.1508 73.51C11.5108 72.271 14.7118 72.005 19.4508 72.596" stroke="#505050" stroke-width="0.75" stroke-linecap="round" stroke-linejoin="round"/>
<path d="M81.6001 94.153C82.1521 97.619 84.1001 100.797 86.7231 101.619C94.9141 104.181 109.099 110.398 109.099 110.398C109.276 120.206 110.164 130.998 109.214 142.278C113.756 144.19 118.854 144.305 123.478 142.601C124.278 131.956 124.791 121.748 124.601 112.321C124.558 109.975 124.015 107.666 123.007 105.547C121.998 103.429 120.549 101.55 118.755 100.038C111.354 93.9195 103.102 88.9094 94.2591 85.165" stroke="#505050" stroke-width="0.75" stroke-linecap="round" stroke-linejoin="round"/>
<path d="M109.094 110.398L111.284 111.217L109.285 116.949" stroke="#505050" stroke-width="0.75" stroke-linecap="round" stroke-linejoin="round"/>
<path d="M109.609 134.755C114.239 136.344 119.224 136.588 123.987 135.46" stroke="#505050" stroke-width="0.75" stroke-linecap="round" stroke-linejoin="round"/>
<path d="M105.419 5.67499V8.85599" stroke="#505050" stroke-width="0.75" stroke-linecap="round" stroke-linejoin="round"/>
<path d="M111.608 11.864H108.427" stroke="#505050" stroke-width="0.75" stroke-linecap="round" stroke-linejoin="round"/>
<path d="M105.419 18.054V14.873" stroke="#505050" stroke-width="0.75" stroke-linecap="round" stroke-linejoin="round"/>
<path d="M99.23 11.864H102.412" stroke="#505050" stroke-width="0.75" stroke-linecap="round" stroke-linejoin="round"/>
<path d="M108.427 11.864C108.032 11.865 107.64 11.788 107.275 11.6372C106.909 11.4864 106.577 11.2648 106.298 10.9853C106.018 10.7058 105.797 10.3738 105.646 10.0083C105.495 9.64292 105.418 9.2513 105.419 8.85599C105.42 9.25122 105.343 9.64276 105.192 10.0081C105.042 10.3735 104.82 10.7054 104.541 10.985C104.261 11.2645 103.929 11.486 103.564 11.6369C103.199 11.7877 102.807 11.8649 102.412 11.864C102.807 11.8631 103.199 11.9403 103.564 12.0912C103.93 12.2421 104.262 12.4637 104.541 12.7434C104.82 13.023 105.042 13.3551 105.193 13.7206C105.343 14.086 105.42 14.4777 105.419 14.873C105.418 14.4776 105.495 14.0859 105.646 13.7203C105.796 13.3548 106.018 13.0226 106.297 12.743C106.577 12.4634 106.909 12.2418 107.274 12.0909C107.64 11.94 108.032 11.8629 108.427 11.864Z" stroke="#505050" stroke-width="0.75" stroke-linecap="round" stroke-linejoin="round"/>
<defs>
<linearGradient id="paint0_linear_205_849" x1="132.516" y1="75.9064" x2="54.9544" y2="69.5335" gradientUnits="userSpaceOnUse">
<stop stop-color="#0066FF"/>
<stop offset="0.299296" stop-color="#7044CE" stop-opacity="0.936844"/>
<stop offset="0.799113" stop-color="#FF006B" stop-opacity="0.81"/>
<stop offset="1" stop-color="#FF006B" stop-opacity="0"/>
</linearGradient>
<linearGradient id="paint1_linear_205_849" x1="43.1809" y1="87.9478" x2="2.9173" y2="85.7728" gradientUnits="userSpaceOnUse">
<stop stop-color="#0066FF"/>
<stop offset="0.299296" stop-color="#7044CE" stop-opacity="0.936844"/>
<stop offset="0.799113" stop-color="#FF006B" stop-opacity="0.81"/>
<stop offset="1" stop-color="#FF006B" stop-opacity="0"/>
</linearGradient>
<linearGradient id="paint2_linear_205_849" x1="194.462" y1="143.49" x2="181.828" y2="142.841" gradientUnits="userSpaceOnUse">
<stop stop-color="#0066FF"/>
<stop offset="0.299296" stop-color="#7044CE" stop-opacity="0.936844"/>
<stop offset="0.799113" stop-color="#FF006B" stop-opacity="0.81"/>
<stop offset="1" stop-color="#FF006B" stop-opacity="0"/>
</linearGradient>
<linearGradient id="paint3_linear_205_849" x1="84.0812" y1="162.016" x2="69.0708" y2="161.58" gradientUnits="userSpaceOnUse">
<stop stop-color="#0066FF"/>
<stop offset="0.299296" stop-color="#7044CE" stop-opacity="0.936844"/>
<stop offset="0.799113" stop-color="#FF006B" stop-opacity="0.81"/>
<stop offset="1" stop-color="#FF006B" stop-opacity="0"/>
</linearGradient>
<linearGradient id="paint4_linear_205_849" x1="99.4308" y1="58.4792" x2="91.2473" y2="57.607" gradientUnits="userSpaceOnUse">
<stop stop-color="#0066FF"/>
<stop offset="0.299296" stop-color="#7044CE" stop-opacity="0.936844"/>
<stop offset="0.799113" stop-color="#FF006B" stop-opacity="0.81"/>
<stop offset="1" stop-color="#FF006B" stop-opacity="0"/>
</linearGradient>
<linearGradient id="paint5_linear_205_849" x1="94.5674" y1="68.641" x2="48.6447" y2="66.0406" gradientUnits="userSpaceOnUse">
<stop stop-color="#0066FF"/>
<stop offset="0.299296" stop-color="#7044CE" stop-opacity="0.936844"/>
<stop offset="0.799113" stop-color="#FF006B" stop-opacity="0.81"/>
<stop offset="1" stop-color="#FF006B" stop-opacity="0"/>
</linearGradient>
<linearGradient id="paint6_linear_205_849" x1="121.617" y1="161.467" x2="104.123" y2="160.975" gradientUnits="userSpaceOnUse">
<stop stop-color="#0066FF"/>
<stop offset="0.299296" stop-color="#7044CE" stop-opacity="0.936844"/>
<stop offset="0.799113" stop-color="#FF006B" stop-opacity="0.81"/>
<stop offset="1" stop-color="#FF006B" stop-opacity="0"/>
</linearGradient>
<linearGradient id="paint7_linear_205_849" x1="85.8938" y1="78.9961" x2="81.7544" y2="78.7534" gradientUnits="userSpaceOnUse">
<stop stop-color="#0066FF"/>
<stop offset="0.299296" stop-color="#7044CE" stop-opacity="0.936844"/>
<stop offset="0.799113" stop-color="#FF006B" stop-opacity="0.81"/>
<stop offset="1" stop-color="#FF006B" stop-opacity="0"/>
</linearGradient>
<linearGradient id="paint8_linear_205_849" x1="102.67" y1="82.4061" x2="100.507" y2="82.3034" gradientUnits="userSpaceOnUse">
<stop stop-color="#0066FF"/>
<stop offset="0.299296" stop-color="#7044CE" stop-opacity="0.936844"/>
<stop offset="0.799113" stop-color="#FF006B" stop-opacity="0.81"/>
<stop offset="1" stop-color="#FF006B" stop-opacity="0"/>
</linearGradient>
<linearGradient id="paint9_linear_205_849" x1="111.145" y1="115.784" x2="107.885" y2="115.725" gradientUnits="userSpaceOnUse">
<stop stop-color="#0066FF"/>
<stop offset="0.299296" stop-color="#7044CE" stop-opacity="0.936844"/>
<stop offset="0.799113" stop-color="#FF006B" stop-opacity="0.81"/>
<stop offset="1" stop-color="#FF006B" stop-opacity="0"/>
</linearGradient>
<linearGradient id="paint10_linear_205_849" x1="47.952" y1="166.393" x2="13.5135" y2="165.204" gradientUnits="userSpaceOnUse">
<stop stop-color="#0066FF"/>
<stop offset="0.299296" stop-color="#7044CE" stop-opacity="0.936844"/>
<stop offset="0.799113" stop-color="#FF006B" stop-opacity="0.81"/>
<stop offset="1" stop-color="#FF006B" stop-opacity="0"/>
</linearGradient>
<linearGradient id="paint11_linear_205_849" x1="82.8978" y1="145.562" x2="49.0076" y2="144.397" gradientUnits="userSpaceOnUse">
<stop stop-color="#0066FF"/>
<stop offset="0.299296" stop-color="#7044CE" stop-opacity="0.936844"/>
<stop offset="0.799113" stop-color="#FF006B" stop-opacity="0.81"/>
<stop offset="1" stop-color="#FF006B" stop-opacity="0"/>
</linearGradient>
</defs>
</svg>
