<svg width="200" height="200" viewBox="0 0 200 200" fill="none" xmlns="http://www.w3.org/2000/svg">
<path d="M192.948 140.659C187.93 132.182 178.773 121.046 169.274 118.505L166.614 124.851C166.44 125.242 166.145 125.566 165.772 125.775C165.398 125.984 164.967 126.067 164.543 126.01L157.266 124.984C156.972 124.942 156.692 124.835 156.445 124.67C156.198 124.505 155.992 124.287 155.84 124.032C155.689 123.777 155.597 123.491 155.571 123.195C155.544 122.9 155.585 122.602 155.689 122.324L157.266 117.65C152.207 118.934 144.631 115.16 140.109 112.52L148.013 94C146.497 92.2425 144.61 90.8434 142.487 89.9037C140.365 88.964 138.06 88.5071 135.74 88.566L126.487 108.915C125.331 111.466 125.134 114.349 125.934 117.033C126.733 119.717 128.475 122.023 130.838 123.526C136.393 127.151 142.521 129.811 148.963 131.392C148.846 136.777 150.018 142.112 152.383 146.952C158.204 148.528 164.336 148.548 170.167 147.009C169.811 143.572 171.343 139.165 172.58 135.933L179.838 143.627L164.738 156.68C165.238 161.758 169.28 166.08 173.972 167.548L190.772 153.393C192.58 151.869 193.791 149.755 194.189 147.424C194.587 145.093 194.148 142.697 192.948 140.659Z" fill="url(#paint0_linear_205_1086)"/>
<path d="M27.9729 70.72C26.9501 71.3074 25.8501 71.7487 24.7049 72.031C14.2359 74.672 8.59288 88.371 5.89988 98.27C5.20036 100.837 5.51186 103.574 6.77022 105.918C8.02857 108.262 10.138 110.035 12.6639 110.87C20.0742 113.254 27.783 114.585 35.5639 114.822C37.7318 111.189 38.3868 106.849 37.3879 102.738C31.4868 102.227 25.6432 101.19 19.9269 99.638C21.0102 96.6181 22.3682 93.7039 23.9839 90.932C25.4059 95.721 24.8619 93.876 26.3839 99.087C32.6539 100.113 40.0449 100.569 47.0179 98.802C48.1375 94.636 48.8063 90.3618 49.0129 86.053C52.4075 88.7434 56.211 90.873 60.2789 92.361C61.8449 92.9728 63.5177 93.2645 65.1983 93.2188C66.879 93.1732 68.5334 92.791 70.0639 92.095C76.9269 88.969 81.2169 86.623 89.5579 80.372C89.6149 75.413 87.4109 71.955 82.8889 70.036C77.5689 74.007 71.2609 78.073 65.4659 80.372C61.4497 77.369 57.2066 74.6819 52.7749 72.335C47.8929 69.956 41.0329 69.181 40.0259 69.048C36.906 72.7079 33.9509 72.4751 27.9729 70.72Z" fill="url(#paint1_linear_205_1086)"/>
<path d="M33.5591 104.217C33.3487 104.217 33.1429 104.279 32.968 104.396C32.793 104.513 32.6566 104.679 32.5761 104.874C32.4956 105.068 32.4745 105.282 32.5155 105.489C32.5566 105.695 32.6579 105.885 32.8067 106.033C32.9555 106.182 33.1451 106.283 33.3515 106.325C33.5579 106.366 33.7718 106.345 33.9663 106.264C34.1607 106.183 34.3269 106.047 34.4438 105.872C34.5607 105.697 34.6231 105.491 34.6231 105.281C34.6187 105 34.5052 104.732 34.3066 104.533C34.108 104.335 33.8399 104.221 33.5591 104.217Z" fill="url(#paint2_linear_205_1086)"/>
<path d="M18.1119 110.031C18.6995 110.031 19.1759 109.555 19.1759 108.967C19.1759 108.379 18.6995 107.903 18.1119 107.903C17.5242 107.903 17.0479 108.379 17.0479 108.967C17.0479 109.555 17.5242 110.031 18.1119 110.031Z" fill="url(#paint3_linear_205_1086)"/>
<path d="M10.5879 95.8C11.1755 95.8 11.6519 95.3236 11.6519 94.736C11.6519 94.1484 11.1755 93.672 10.5879 93.672C10.0003 93.672 9.52393 94.1484 9.52393 94.736C9.52393 95.3236 10.0003 95.8 10.5879 95.8Z" fill="url(#paint4_linear_205_1086)"/>
<path d="M23.4126 86.775C24.0002 86.775 24.4766 86.2986 24.4766 85.711C24.4766 85.1234 24.0002 84.647 23.4126 84.647C22.825 84.647 22.3486 85.1234 22.3486 85.711C22.3486 86.2986 22.825 86.775 23.4126 86.775Z" fill="url(#paint5_linear_205_1086)"/>
<path d="M28.315 72.278C28.1045 72.278 27.8988 72.3404 27.7239 72.4573C27.5489 72.5742 27.4125 72.7404 27.332 72.9348C27.2514 73.1292 27.2304 73.3432 27.2714 73.5496C27.3125 73.756 27.4138 73.9455 27.5626 74.0943C27.7114 74.2431 27.901 74.3445 28.1074 74.3855C28.3138 74.4266 28.5277 74.4055 28.7222 74.325C28.9166 74.2445 29.0827 74.1081 29.1997 73.9331C29.3166 73.7581 29.379 73.5524 29.379 73.342C29.3746 73.0612 29.2611 72.7931 29.0625 72.5945C28.8639 72.3959 28.5958 72.2824 28.315 72.278Z" fill="url(#paint6_linear_205_1086)"/>
<path d="M38.9737 82.956C38.7632 82.956 38.5575 83.0184 38.3825 83.1353C38.2076 83.2522 38.0712 83.4184 37.9907 83.6128C37.9101 83.8072 37.8891 84.0212 37.9301 84.2276C37.9712 84.434 38.0725 84.6236 38.2213 84.7724C38.3701 84.9212 38.5597 85.0225 38.7661 85.0635C38.9725 85.1046 39.1864 85.0835 39.3809 85.003C39.5753 84.9225 39.7414 84.7861 39.8584 84.6111C39.9753 84.4361 40.0377 84.2304 40.0377 84.02C40.0333 83.7392 39.9198 83.4711 39.7212 83.2725C39.5226 83.0739 39.2545 82.9604 38.9737 82.956Z" fill="url(#paint7_linear_205_1086)"/>
<path d="M30.3287 92.608C30.1182 92.608 29.9125 92.6704 29.7376 92.7873C29.5626 92.9042 29.4262 93.0704 29.3457 93.2648C29.2651 93.4592 29.2441 93.6732 29.2851 93.8796C29.3262 94.086 29.4275 94.2756 29.5763 94.4244C29.7251 94.5732 29.9147 94.6745 30.1211 94.7156C30.3275 94.7566 30.5414 94.7355 30.7359 94.655C30.9303 94.5745 31.0965 94.4381 31.2134 94.2631C31.3303 94.0882 31.3927 93.8824 31.3927 93.672C31.3929 93.5322 31.3656 93.3937 31.3122 93.2645C31.2589 93.1353 31.1805 93.0179 31.0816 92.9191C30.9828 92.8202 30.8654 92.7418 30.7362 92.6885C30.607 92.6351 30.4685 92.6077 30.3287 92.608Z" fill="url(#paint8_linear_205_1086)"/>
<path d="M54.5337 86.775C55.1213 86.775 55.5977 86.2986 55.5977 85.711C55.5977 85.1234 55.1213 84.647 54.5337 84.647C53.946 84.647 53.4697 85.1234 53.4697 85.711C53.4697 86.2986 53.946 86.775 54.5337 86.775Z" fill="url(#paint9_linear_205_1086)"/>
<path d="M64.7749 81.7C64.5645 81.7 64.3587 81.7624 64.1838 81.8793C64.0088 81.9962 63.8724 82.1624 63.7919 82.3568C63.7114 82.5512 63.6903 82.7652 63.7313 82.9716C63.7724 83.178 63.8737 83.3675 64.0225 83.5163C64.1713 83.6652 64.3609 83.7665 64.5673 83.8075C64.7737 83.8486 64.9877 83.8275 65.1821 83.747C65.3765 83.6665 65.5427 83.5301 65.6596 83.3551C65.7765 83.1801 65.8389 82.9744 65.8389 82.764C65.8345 82.4832 65.721 82.2151 65.5224 82.0165C65.3238 81.8179 65.0557 81.7044 64.7749 81.7Z" fill="url(#paint10_linear_205_1086)"/>
<path d="M77.6758 86.148C78.2634 86.148 78.7398 85.6716 78.7398 85.084C78.7398 84.4964 78.2634 84.02 77.6758 84.02C77.0882 84.02 76.6118 84.4964 76.6118 85.084C76.6118 85.6716 77.0882 86.148 77.6758 86.148Z" fill="url(#paint11_linear_205_1086)"/>
<path d="M83.3189 74.691C83.9065 74.691 84.3829 74.2146 84.3829 73.627C84.3829 73.0394 83.9065 72.563 83.3189 72.563C82.7312 72.563 82.2549 73.0394 82.2549 73.627C82.2549 74.2146 82.7312 74.691 83.3189 74.691Z" fill="url(#paint12_linear_205_1086)"/>
<path d="M44.1797 94.717C43.9692 94.717 43.7635 94.7794 43.5885 94.8963C43.4136 95.0132 43.2772 95.1794 43.1967 95.3738C43.1161 95.5682 43.0951 95.7822 43.1361 95.9886C43.1772 96.195 43.2785 96.3845 43.4273 96.5333C43.5761 96.6821 43.7657 96.7835 43.9721 96.8245C44.1785 96.8656 44.3924 96.8445 44.5868 96.764C44.7813 96.6835 44.9474 96.5471 45.0643 96.3721C45.1813 96.1971 45.2437 95.9914 45.2437 95.781C45.2393 95.5002 45.1258 95.2321 44.9272 95.0335C44.7286 94.8349 44.4605 94.7214 44.1797 94.717Z" fill="url(#paint13_linear_205_1086)"/>
<path d="M46.2891 74.026C46.8767 74.026 47.3531 73.5496 47.3531 72.962C47.3531 72.3744 46.8767 71.898 46.2891 71.898C45.7014 71.898 45.2251 72.3744 45.2251 72.962C45.2251 73.5496 45.7014 74.026 46.2891 74.026Z" fill="url(#paint14_linear_205_1086)"/>
<path fill-rule="evenodd" clip-rule="evenodd" d="M88.8477 25.9L90.6717 21.093C89.4955 19.4455 88.8583 17.4742 88.8477 15.45C88.8477 9.674 93.9777 5 100.305 5C106.632 5 111.743 9.674 111.743 15.45C111.743 21.226 106.613 25.9 100.286 25.9C97.9252 25.9127 95.613 25.2323 93.6357 23.943L88.8477 25.9ZM96.335 16.0725C96.458 15.8882 96.5237 15.6716 96.5237 15.45C96.5232 15.1523 96.4045 14.8671 96.1937 14.6569C95.9829 14.4467 95.6973 14.3287 95.3997 14.329C95.1781 14.3296 94.9617 14.3959 94.7777 14.5194C94.5938 14.6429 94.4505 14.8182 94.3662 15.0231C94.2818 15.228 94.26 15.4533 94.3036 15.6705C94.3472 15.8878 94.4542 16.0873 94.6111 16.2437C94.768 16.4002 94.9677 16.5067 95.1851 16.5497C95.4025 16.5927 95.6277 16.5703 95.8324 16.4854C96.037 16.4005 96.2119 16.2568 96.335 16.0725ZM101.407 15.45C101.407 15.6717 101.341 15.8885 101.218 16.0728C101.095 16.2572 100.92 16.4008 100.715 16.4857C100.51 16.5705 100.285 16.5927 100.067 16.5495C99.8495 16.5062 99.6498 16.3995 99.493 16.2427C99.3362 16.0859 99.2295 15.8862 99.1862 15.6687C99.143 15.4513 99.1652 15.2259 99.25 15.021C99.3349 14.8162 99.4785 14.6411 99.6629 14.5179C99.8472 14.3948 100.064 14.329 100.286 14.329C100.583 14.3295 100.868 14.4478 101.078 14.6579C101.288 14.868 101.406 15.1529 101.407 15.45ZM106.12 16.0728C106.243 15.8885 106.309 15.6717 106.309 15.45C106.308 15.1529 106.19 14.868 105.98 14.6579C105.77 14.4478 105.485 14.3295 105.188 14.329C104.966 14.329 104.75 14.3948 104.565 14.5179C104.381 14.6411 104.237 14.8162 104.152 15.021C104.067 15.2259 104.045 15.4513 104.089 15.6687C104.132 15.8862 104.239 16.0859 104.395 16.2427C104.552 16.3995 104.752 16.5062 104.969 16.5495C105.187 16.5927 105.412 16.5705 105.617 16.4857C105.822 16.4008 105.997 16.2572 106.12 16.0728Z" fill="url(#paint15_linear_205_1086)"/>
<path d="M163.745 70.72C163.745 71.1183 163.627 71.5077 163.406 71.8389C163.184 72.1701 162.87 72.4283 162.502 72.5807C162.134 72.7331 161.729 72.773 161.338 72.6953C160.947 72.6176 160.589 72.4258 160.307 72.1441C160.025 71.8624 159.833 71.5036 159.756 71.1129C159.678 70.7222 159.718 70.3173 159.87 69.9493C160.023 69.5813 160.281 69.2667 160.612 69.0454C160.943 68.8241 161.333 68.706 161.731 68.706C162.265 68.7063 162.777 68.9185 163.155 69.2962C163.532 69.6738 163.745 70.1859 163.745 70.72Z" fill="url(#paint16_linear_205_1086)"/>
<path d="M87.4229 182.952L69.8099 182.5C69.6553 182.486 69.4996 182.509 69.3556 182.567C69.2116 182.625 69.0834 182.717 68.9815 182.834C68.8795 182.951 68.8067 183.09 68.7691 183.241C68.7315 183.391 68.73 183.549 68.7649 183.7L69.5649 186.968C73.1873 187.052 76.8113 186.9 80.4139 186.512C77.1129 187.863 73.6809 188.868 70.1729 189.512L71.8069 194.262C71.8424 194.412 71.9135 194.552 72.0142 194.669C72.1149 194.787 72.2424 194.878 72.3857 194.936C72.5291 194.993 72.6843 195.016 72.8381 195.001C72.992 194.986 73.1401 194.935 73.2699 194.851C78.5974 192.215 83.5077 188.809 87.8429 184.743C88.0153 184.636 88.1498 184.477 88.2273 184.289C88.3049 184.102 88.3217 183.895 88.2753 183.697C88.229 183.499 88.1218 183.321 87.9689 183.187C87.816 183.054 87.625 182.971 87.4229 182.952Z" fill="url(#paint17_linear_205_1086)"/>
<path d="M122.554 39.275H73.762C72.2447 39.2743 70.7421 39.5727 69.3402 40.1531C67.9383 40.7335 66.6645 41.5844 65.5917 42.6574C64.5188 43.7303 63.668 45.0042 63.0877 46.4061C62.5075 47.8081 62.2092 49.3107 62.21 50.828V58.674H67.338V51.948C67.3437 50.8858 67.5623 49.8356 67.9808 48.8594C68.3993 47.8831 69.0093 47.0007 69.7747 46.2642C70.54 45.5277 71.4453 44.9521 72.4369 44.5715C73.4285 44.1908 74.4864 44.0128 75.548 44.048H121.11C122.171 44.0145 123.228 44.1936 124.219 44.5749C125.21 44.9562 126.114 45.5319 126.879 46.268C127.644 47.0042 128.254 47.886 128.673 48.8615C129.091 49.837 129.311 50.8864 129.318 51.948V102.678L134.106 92.152V50.828C134.107 49.3107 133.808 47.8082 133.228 46.4063C132.648 45.0044 131.797 43.7306 130.724 42.6577C129.651 41.5848 128.377 40.7338 126.976 40.1534C125.574 39.5729 124.071 39.2745 122.554 39.275Z" fill="url(#paint18_linear_205_1086)"/>
<path d="M129.3 154.623V161.123C129.299 163.3 128.435 165.387 126.895 166.926C125.356 168.466 123.269 169.33 121.092 169.331H75.5289C73.3522 169.33 71.2647 168.466 69.7256 166.926C68.1864 165.387 67.3214 163.3 67.3209 161.123V109.923H62.1909V162.552C62.1908 164.069 62.4895 165.571 63.0701 166.972C63.6506 168.374 64.5016 169.647 65.5744 170.719C66.6471 171.792 67.9207 172.642 69.3223 173.222C70.7239 173.802 72.226 174.101 73.7429 174.1H122.554C124.071 174.101 125.574 173.802 126.976 173.222C128.377 172.642 129.651 171.791 130.724 170.718C131.797 169.645 132.648 168.371 133.228 166.97C133.808 165.568 134.107 164.065 134.106 162.548V154.625L129.3 154.623Z" fill="url(#paint19_linear_205_1086)"/>
<path d="M163.346 111.076L161.541 113.185C161.675 112.554 161.738 111.911 161.731 111.266C162.274 111.246 162.814 111.182 163.346 111.076Z" fill="url(#paint20_linear_205_1086)"/>
<path d="M37.3779 67.642C36.8127 67.025 36.5006 66.2177 36.5039 65.381C36.9189 65.6501 37.3519 65.8904 37.7999 66.1C37.5021 66.5575 37.3546 67.0966 37.3779 67.642Z" fill="url(#paint21_linear_205_1086)"/>
<path d="M25.427 88.542L25.1 94.717L23.979 90.879C24.4 90.157 24.876 89.4 25.427 88.542Z" fill="url(#paint22_linear_205_1086)"/>
<path d="M49.006 86.053C49.111 83.8225 49.0538 81.5872 48.835 79.365L51.435 87.839C50.659 87.307 49.842 86.718 49.006 86.053Z" fill="url(#paint23_linear_205_1086)"/>
<path d="M41.8998 50.6C41.8689 50.2791 41.7317 49.9778 41.51 49.7438C41.2882 49.5098 40.9947 49.3566 40.6759 49.3086C40.3571 49.2606 40.0315 49.3204 39.7506 49.4787C39.4698 49.6369 39.2499 49.8845 39.1258 50.182H38.9358C38.8384 49.8732 38.6406 49.6059 38.3738 49.4224C38.1071 49.239 37.7866 49.1499 37.4635 49.1695C37.1403 49.189 36.8329 49.316 36.5902 49.5303C36.3475 49.7445 36.1833 50.0338 36.1238 50.352H36.0478C35.9543 49.9899 35.7244 49.6779 35.4062 49.4814C35.0881 49.2849 34.7062 49.219 34.3405 49.2975C33.9749 49.376 33.6538 49.5929 33.4443 49.9028C33.2349 50.2126 33.1534 50.5914 33.2168 50.96C33.1104 50.6323 32.8908 50.3532 32.5974 50.1726C32.304 49.9919 31.9559 49.9216 31.6154 49.9742C31.2749 50.0267 30.9642 50.1988 30.7389 50.4594C30.5136 50.7201 30.3885 51.0525 30.3858 51.397C30.3847 51.5383 30.4039 51.6791 30.4428 51.815C31.1911 54.0679 31.8252 56.3572 32.3428 58.674C32.9698 61.714 33.2928 64.982 32.3428 66.674C34.2238 63.919 34.6988 61.145 34.3948 60.841C31.4688 57.954 34.0528 55.255 35.4018 57.326C36.0478 58.314 36.4278 58.314 36.6368 57.745C37.5108 54.78 41.6718 50.677 43.1368 56.927L41.8998 50.6Z" fill="url(#paint24_linear_205_1086)"/>
<path d="M165.892 67.3C165.885 67.4794 165.809 67.6491 165.68 67.7736C165.551 67.8981 165.378 67.9676 165.199 67.9676C165.019 67.9676 164.846 67.8981 164.717 67.7736C164.588 67.6491 164.512 67.4794 164.505 67.3C164.512 67.1206 164.588 66.9509 164.717 66.8264C164.846 66.7019 165.019 66.6323 165.199 66.6323C165.378 66.6323 165.551 66.7019 165.68 66.8264C165.809 66.9509 165.885 67.1206 165.892 67.3Z" fill="url(#paint25_linear_205_1086)"/>
<path d="M173.34 106.649C173.667 105.582 173.859 104.477 173.91 103.362C174.138 96.462 167.127 94.869 162.225 98.916C164.904 97.206 166.443 101.386 166.177 103.951C166.177 104.403 166.331 104.825 167.488 104.051C169.521 102.645 170.87 106.122 167.07 107.68C166.348 107.965 165.57 111.537 166.462 115.945C166.804 117.692 167.621 117.945 169.274 118.472C173.82 119.798 178.362 123 181.643 126.11C190.326 109.119 173.321 106.649 173.34 106.649Z" fill="url(#paint26_linear_205_1086)"/>
<path d="M165.892 67.3C165.885 67.4794 165.809 67.6491 165.68 67.7736C165.551 67.8981 165.378 67.9676 165.199 67.9676C165.019 67.9676 164.846 67.8981 164.717 67.7736C164.588 67.6491 164.512 67.4794 164.505 67.3C164.512 67.1206 164.588 66.9509 164.717 66.8264C164.846 66.7019 165.019 66.6323 165.199 66.6323C165.378 66.6323 165.551 66.7019 165.68 66.8264C165.809 66.9509 165.885 67.1206 165.892 67.3Z" stroke="#545456" stroke-width="0.75"/>
<path d="M152.383 146.947L149.248 154.623" stroke="#545456" stroke-width="0.75" stroke-linecap="round" stroke-linejoin="round"/>
<path d="M67.3379 58.674V51.93C67.3429 50.8674 67.561 49.8166 67.9792 48.8398C68.3974 47.863 69.0073 46.9799 69.7728 46.2429C70.5382 45.5059 71.4437 44.9299 72.4356 44.5489C73.4276 44.168 74.4859 43.9898 75.5479 44.025H121.11C122.171 43.9915 123.229 44.1708 124.22 44.5524C125.211 44.9339 126.116 45.5101 126.881 46.2468C127.646 46.9835 128.255 47.8659 128.674 48.8419C129.093 49.818 129.312 50.868 129.318 51.93V102.678" stroke="#545456" stroke-width="0.75" stroke-linecap="round" stroke-linejoin="round"/>
<path d="M134.1 92.133V50.809C134.099 49.2918 133.8 47.7895 133.219 46.3881C132.637 44.9867 131.785 43.7137 130.712 42.6417C129.638 41.5697 128.363 40.7198 126.961 40.1406C125.559 39.5613 124.056 39.2642 122.539 39.266H73.7429C72.2251 39.2664 70.7223 39.5658 69.3203 40.1471C67.9182 40.7284 66.6445 41.5802 65.5717 42.6539C64.499 43.7276 63.6482 45.0021 63.0682 46.4046C62.4881 47.8072 62.19 49.3102 62.1909 50.828V58.674" stroke="#545456" stroke-width="0.75" stroke-linecap="round" stroke-linejoin="round"/>
<path d="M158.9 103.381H144.004" stroke="#545456" stroke-width="0.75" stroke-linecap="round" stroke-linejoin="round"/>
<path d="M173.891 103.371H183.448C184.024 103.37 184.594 103.483 185.126 103.703C185.659 103.922 186.142 104.245 186.55 104.652C186.958 105.058 187.281 105.541 187.502 106.073C187.723 106.605 187.837 107.175 187.837 107.751V132.926" stroke="#545456" stroke-width="0.75" stroke-linecap="round" stroke-linejoin="round"/>
<path d="M129 103.381H126.05L113.4 99.486L117.428 111.836V150.236C117.429 151.4 117.891 152.516 118.714 153.339C119.537 154.162 120.653 154.624 121.817 154.625H167.07" stroke="#545456" stroke-width="0.75" stroke-linecap="round" stroke-linejoin="round"/>
<path d="M79.3289 72.6V63.063C79.3284 61.8991 78.8658 60.7831 78.0428 59.9601C77.2198 59.1371 76.1038 58.6745 74.9399 58.674H43.4199" stroke="#545456" stroke-width="0.75" stroke-linecap="round" stroke-linejoin="round"/>
<path d="M129.318 154.623V161.123C129.317 163.3 128.453 165.387 126.913 166.926C125.374 168.466 123.287 169.33 121.11 169.331H75.5288C73.352 169.33 71.2646 168.466 69.7254 166.926C68.1863 165.387 67.3213 163.3 67.3208 161.123V109.923" stroke="#545456" stroke-width="0.75" stroke-linecap="round" stroke-linejoin="round"/>
<path d="M62.1909 109.917V162.546C62.19 164.063 62.4881 165.566 63.0683 166.968C63.6485 168.37 64.4993 169.644 65.5722 170.717C66.6451 171.79 67.9189 172.641 69.3209 173.222C70.7229 173.802 72.2255 174.101 73.7429 174.1H122.554C124.071 174.101 125.574 173.802 126.976 173.222C128.377 172.642 129.651 171.791 130.724 170.718C131.797 169.645 132.648 168.371 133.228 166.97C133.808 165.568 134.107 164.065 134.106 162.548V154.625" stroke="#545456" stroke-width="0.75" stroke-linecap="round" stroke-linejoin="round"/>
<path d="M32.3049 58.674H13.2859C12.1225 58.6753 11.0073 59.1383 10.1849 59.9612C9.3626 60.7841 8.90043 61.8997 8.8999 63.063V89.363" stroke="#545456" stroke-width="0.75" stroke-linecap="round" stroke-linejoin="round"/>
<path d="M56.7197 109.917H70.7027L83.3377 113.793L79.3287 101.462V87.364" stroke="#545456" stroke-width="0.75" stroke-linecap="round" stroke-linejoin="round"/>
<path d="M100.666 174.1C96.786 178.375 92.0796 181.819 86.8309 184.222C81.5823 186.626 75.9005 187.94 70.1294 188.085C64.3583 188.23 58.6178 187.203 53.2551 185.065C47.8925 182.928 43.0192 179.725 38.9301 175.65C34.8409 171.575 31.6209 166.712 29.4649 161.357C27.3088 156.002 26.2616 150.265 26.3864 144.493C26.5113 138.722 27.8056 133.036 30.1912 127.779C32.5768 122.522 36.0041 117.803 40.2656 113.909" stroke="#545456" stroke-width="0.75" stroke-linecap="round" stroke-linejoin="round"/>
<path d="M87.4229 182.952L69.8099 182.5C69.6553 182.486 69.4996 182.509 69.3556 182.567C69.2116 182.625 69.0834 182.717 68.9815 182.834C68.8795 182.951 68.8067 183.09 68.7691 183.241C68.7315 183.391 68.73 183.549 68.7649 183.7L69.5649 186.968C73.1873 187.052 76.8113 186.9 80.4139 186.512C77.1129 187.863 73.6809 188.868 70.1729 189.512L71.8069 194.262C71.8424 194.412 71.9135 194.552 72.0142 194.669C72.1149 194.787 72.2424 194.878 72.3857 194.936C72.5291 194.993 72.6843 195.016 72.8381 195.001C72.992 194.986 73.1401 194.935 73.2699 194.851C78.5974 192.215 83.5077 188.809 87.8429 184.743C88.0153 184.636 88.1498 184.477 88.2273 184.289C88.3049 184.102 88.3217 183.895 88.2753 183.697C88.229 183.499 88.1218 183.321 87.9689 183.187C87.816 183.054 87.625 182.971 87.4229 182.952Z" stroke="#545456" stroke-width="0.75" stroke-linecap="round" stroke-linejoin="round"/>
<path d="M161.731 111.247C162.273 111.237 162.814 111.179 163.346 111.076L161.541 113.166" stroke="#545456" stroke-width="0.75" stroke-linecap="round" stroke-linejoin="round"/>
<path d="M148.963 131.349C142.503 129.841 136.365 127.19 130.838 123.521C128.475 122.018 126.734 119.712 125.934 117.028C125.135 114.344 125.331 111.461 126.487 108.91L135.739 88.543C140.553 88.868 144.449 89.809 148.013 93.976L140.113 112.52C143.666 114.591 148.055 116.778 152.121 117.574C157.697 118.665 161.735 116.922 161.735 111.247C159.208 111.323 155.028 110.392 159.398 102.431C163.768 94.47 166.675 100.631 166.314 103.989C166.333 104.578 166.637 104.73 167.625 104.046C169.658 102.639 171.017 106.146 167.207 107.675C166.487 107.965 165.707 111.533 166.599 115.94C167.28 119.284 169.622 117.173 176.517 121.94C184.176 127.24 189.71 134.912 193.085 140.616C194.292 142.653 194.737 145.053 194.34 147.388C193.943 149.722 192.731 151.841 190.919 153.365L173.99 167.539C171.574 166.795 169.419 165.378 167.781 163.453C166.142 161.528 165.086 159.175 164.737 156.671L179.837 143.618L170.945 134.176" stroke="#545456" stroke-width="0.75" stroke-linecap="round" stroke-linejoin="round"/>
<path d="M37.3779 67.642C36.8127 67.025 36.5006 66.2177 36.5039 65.381C36.9189 65.6501 37.3519 65.8904 37.7999 66.1" stroke="#545456" stroke-width="0.75" stroke-linecap="round" stroke-linejoin="round"/>
<path d="M36.6181 57.743C37.4921 54.779 41.6721 50.675 43.1181 56.926L43.4411 58.94C44.4481 68.14 40.0781 67.167 37.7981 66.103C37.7981 66.103 36.2041 68.46 39.1231 68.949C39.5911 69.027 39.9091 69.034 40.0231 69.049C37.7431 72.393 33.5231 72.602 27.9771 70.721C33.1341 67.799 34.9901 61.488 34.3611 60.86C31.4611 57.968 34.0171 55.275 35.3681 57.345C36.0131 58.334 36.3561 58.314 36.6031 57.782L36.6181 57.743Z" stroke="#545456" stroke-width="0.75" stroke-linecap="round" stroke-linejoin="round"/>
<path d="M23.9736 90.932C24.4106 90.191 24.8946 89.397 25.4266 88.542L25.0996 94.736" stroke="#545456" stroke-width="0.75" stroke-linecap="round" stroke-linejoin="round"/>
<path d="M49.006 86.053C49.111 83.8225 49.0538 81.5872 48.835 79.365L51.435 87.839" stroke="#545456" stroke-width="0.75" stroke-linecap="round" stroke-linejoin="round"/>
<path d="M27.9729 70.72C26.9501 71.3074 25.8501 71.7487 24.7049 72.031C14.2359 74.672 8.59288 88.371 5.89988 98.27C5.20036 100.837 5.51186 103.574 6.77022 105.918C8.02857 108.262 10.138 110.035 12.6639 110.87C20.0742 113.254 27.783 114.585 35.5639 114.822C37.7318 111.189 38.3868 106.849 37.3879 102.738C31.4868 102.227 25.6432 101.19 19.9269 99.638C21.0102 96.6181 22.3682 93.7039 23.9839 90.932C25.4059 95.721 24.8619 93.876 26.3839 99.087C32.6539 100.113 40.0449 100.569 47.0179 98.802C48.1375 94.636 48.8063 90.3618 49.0129 86.053C52.4075 88.7434 56.211 90.873 60.2789 92.361C61.8449 92.9728 63.5177 93.2645 65.1983 93.2188C66.879 93.1732 68.5334 92.791 70.0639 92.095C76.9269 88.969 81.2169 86.623 89.5579 80.372C89.6149 75.413 87.4109 71.955 82.8889 70.036C77.5689 74.007 71.2609 78.073 65.4659 80.372C61.4497 77.369 57.2066 74.6819 52.7749 72.335C47.8929 69.956 41.0329 69.181 40.0259 69.048" stroke="#545456" stroke-width="0.75" stroke-linecap="round" stroke-linejoin="round"/>
<path d="M141.744 79.676C141.824 79.4484 141.958 79.243 142.133 79.0766C142.308 78.9103 142.52 78.7878 142.751 78.719C143.757 78.453 145.239 80.562 144.764 83.279C144.519 84.754 143.482 85.42 142.892 83.196" stroke="#545456" stroke-width="0.75" stroke-linecap="round" stroke-linejoin="round"/>
<path d="M143.795 79.175C143.963 79.0085 144.173 78.8904 144.403 78.833C145.412 78.574 146.949 80.106 146.588 82.861C146.4 84.292 145.54 84.641 144.822 82.872" stroke="#545456" stroke-width="0.75" stroke-linecap="round" stroke-linejoin="round"/>
<path d="M136.766 88.6C139.027 84.534 138.854 83.394 139.445 81.456C139.729 80.525 140.127 79.704 140.945 79.499C141.945 79.247 143.218 80.942 142.845 83.599C142.691 84.699 141.212 84.473 140.945 81.68" stroke="#545456" stroke-width="0.75" stroke-linecap="round" stroke-linejoin="round"/>
<path d="M147.329 93.235C148.051 91.658 153.088 82.459 152.516 82.196C151.891 81.908 148.488 84.932 148.488 84.932C148.488 84.932 144.498 85.483 144.764 88.032" stroke="#545456" stroke-width="0.75" stroke-linecap="round" stroke-linejoin="round"/>
<path d="M148.469 84.932C150.141 78.301 148.869 72.732 148.526 73.722C147.878 75.602 147.082 80.622 146.588 82.842" stroke="#545456" stroke-width="0.75" stroke-linecap="round" stroke-linejoin="round"/>
<path d="M140.034 82.842C140.413 82.7399 140.816 82.7641 141.18 82.911" stroke="#545456" stroke-width="0.75" stroke-linecap="round" stroke-linejoin="round"/>
<path d="M85.1997 71.233C88.8477 70.302 107.316 72.753 106.518 74.558C101.939 75.258 95.0657 74.566 91.1087 76.838C90.8427 76.991 89.9087 77.638 89.3987 77.997" stroke="#545456" stroke-width="0.75" stroke-linecap="round" stroke-linejoin="round"/>
<path d="M85.7129 71.138C92.8189 69.466 100.685 60.156 94.0729 69.58C93.4459 70.625 93.1419 71.214 94.0349 71.423" stroke="#545456" stroke-width="0.75" stroke-linecap="round" stroke-linejoin="round"/>
<path d="M91.375 76.686C94.985 75.261 113.928 80.03 100.78 74.976" stroke="#545456" stroke-width="0.75" stroke-linecap="round" stroke-linejoin="round"/>
<path d="M91.394 76.667C92.894 75.867 107.259 81.667 99.659 76.876" stroke="#545456" stroke-width="0.75" stroke-linecap="round" stroke-linejoin="round"/>
<path d="M47.2998 109.917C50.2258 111.517 51.2538 114.385 50.2638 115.161C49.7617 115.423 49.1889 115.516 48.6298 115.427" stroke="#545456" stroke-width="0.75" stroke-linecap="round" stroke-linejoin="round"/>
<path d="M48.3999 108.226C51.3259 109.826 52.3489 112.687 51.3639 113.47C51.1276 113.622 50.8624 113.725 50.5849 113.77" stroke="#545456" stroke-width="0.75" stroke-linecap="round" stroke-linejoin="round"/>
<path d="M35.9526 114.135C39.2847 113.536 42.7194 113.925 45.8326 115.256" stroke="#545456" stroke-width="0.75" stroke-linecap="round" stroke-linejoin="round"/>
<path d="M45.6427 111.57C48.4167 113.204 49.1537 115.499 48.2267 116.339C47.1397 117.322 43.4957 116.814 42.4697 114.211" stroke="#545456" stroke-width="0.75" stroke-linecap="round" stroke-linejoin="round"/>
<path d="M37.4727 103.343C39.9427 103.267 49.4827 103.704 49.5187 104.426C49.5597 105.262 47.2957 105.737 47.2957 105.737" stroke="#545456" stroke-width="0.75" stroke-linecap="round" stroke-linejoin="round"/>
<path d="M37.4917 103.362C40.5945 103.586 43.6445 104.285 46.5357 105.433C46.5357 105.433 54.3677 108.433 57.9157 109.214C59.0957 109.473 55.7157 110.867 49.8797 109.29" stroke="#545456" stroke-width="0.75" stroke-linecap="round" stroke-linejoin="round"/>
<path d="M26.3771 99.087C25.6469 99.5235 25.0029 100.09 24.4771 100.759" stroke="#545456" stroke-width="0.75" stroke-linecap="round" stroke-linejoin="round"/>
<path d="M47.0107 98.802L47.7137 103.894" stroke="#545456" stroke-width="0.75" stroke-linecap="round" stroke-linejoin="round"/>
<path d="M172.466 135.813C171.193 139.081 169.673 143.85 170.166 147.004C164.335 148.543 158.203 148.523 152.382 146.947C147.347 135.794 148.411 127.777 151.641 122.347" stroke="#545456" stroke-width="0.75" stroke-linecap="round" stroke-linejoin="round"/>
<path d="M162.121 99C167.732 94.282 176.185 96.989 173.321 106.654C173.321 106.654 190.321 109.124 181.643 126.11" stroke="#545456" stroke-width="0.75" stroke-linecap="round" stroke-linejoin="round"/>
<path d="M170.167 147C171.331 147.57 172.375 148.357 173.245 149.318" stroke="#545456" stroke-width="0.75" stroke-linecap="round" stroke-linejoin="round"/>
<path d="M169.388 118.505L166.614 124.832C166.441 125.223 166.145 125.548 165.772 125.757C165.398 125.966 164.967 126.048 164.543 125.991L157.266 124.984C156.972 124.942 156.692 124.835 156.445 124.67C156.198 124.505 155.992 124.287 155.84 124.032C155.689 123.777 155.597 123.491 155.571 123.195C155.544 122.9 155.585 122.602 155.689 122.324L157.494 117.593" stroke="#545456" stroke-width="0.75" stroke-linecap="round" stroke-linejoin="round"/>
<path d="M43.1351 56.926L41.8621 50.58C41.8153 50.2567 41.6648 49.9572 41.4332 49.7268C41.2016 49.4964 40.9014 49.3474 40.5779 49.3023C40.2543 49.2572 39.9248 49.3184 39.639 49.4767C39.3532 49.635 39.1265 49.8818 38.9931 50.18C38.8802 49.8683 38.6697 49.6014 38.3929 49.419C38.1161 49.2366 37.7878 49.1484 37.4568 49.1676C37.1259 49.1868 36.81 49.3124 36.5562 49.5256C36.3023 49.7389 36.1241 50.0283 36.0481 50.351C35.9487 49.9901 35.7152 49.6808 35.3954 49.4862C35.0756 49.2916 34.6935 49.2265 34.3273 49.3041C33.9611 49.3817 33.6383 49.5962 33.4249 49.9038C33.2115 50.2113 33.1236 50.5888 33.1791 50.959C33.0574 50.6014 32.8011 50.3052 32.4646 50.1335C32.1281 49.9618 31.7379 49.928 31.3768 50.0392C31.0158 50.1505 30.7124 50.3981 30.5309 50.7295C30.3495 51.0609 30.3044 51.4499 30.4051 51.814C31.1534 54.0669 31.7875 56.3562 32.3051 58.673C32.9231 61.673 33.2461 64.891 32.3441 66.601" stroke="#545456" stroke-width="0.75" stroke-linecap="round" stroke-linejoin="round"/>
<path d="M96.5237 15.45C96.5237 15.6716 96.458 15.8882 96.335 16.0725C96.2119 16.2568 96.037 16.4005 95.8324 16.4854C95.6277 16.5703 95.4025 16.5927 95.1851 16.5497C94.9677 16.5067 94.768 16.4002 94.6111 16.2437C94.4542 16.0873 94.3472 15.8878 94.3036 15.6705C94.26 15.4533 94.2818 15.228 94.3662 15.0231C94.4505 14.8182 94.5938 14.6429 94.7777 14.5194C94.9617 14.3959 95.1781 14.3296 95.3997 14.329C95.6973 14.3287 95.9829 14.4467 96.1937 14.6569C96.4045 14.8671 96.5232 15.1523 96.5237 15.45Z" stroke="#545456" stroke-width="0.75" stroke-linecap="round" stroke-linejoin="round"/>
<path d="M101.407 15.45C101.407 15.6717 101.341 15.8885 101.218 16.0728C101.095 16.2572 100.92 16.4008 100.715 16.4857C100.51 16.5705 100.285 16.5927 100.067 16.5495C99.8498 16.5062 99.6501 16.3995 99.4933 16.2427C99.3365 16.0859 99.2298 15.8862 99.1865 15.6687C99.1433 15.4513 99.1655 15.2259 99.2503 15.021C99.3352 14.8162 99.4788 14.6411 99.6632 14.5179C99.8475 14.3948 100.064 14.329 100.286 14.329C100.583 14.3295 100.868 14.4478 101.078 14.6579C101.288 14.868 101.406 15.1529 101.407 15.45Z" stroke="#545456" stroke-width="0.75" stroke-linecap="round" stroke-linejoin="round"/>
<path d="M106.309 15.45C106.309 15.6717 106.243 15.8885 106.12 16.0728C105.997 16.2572 105.822 16.4008 105.617 16.4857C105.412 16.5705 105.187 16.5927 104.969 16.5495C104.752 16.5062 104.552 16.3995 104.395 16.2427C104.239 16.0859 104.132 15.8862 104.089 15.6687C104.045 15.4513 104.067 15.2259 104.152 15.021C104.237 14.8162 104.381 14.6411 104.565 14.5179C104.75 14.3948 104.966 14.329 105.188 14.329C105.485 14.3295 105.77 14.4478 105.98 14.6579C106.19 14.868 106.308 15.1529 106.309 15.45Z" stroke="#545456" stroke-width="0.75" stroke-linecap="round" stroke-linejoin="round"/>
<path d="M165.436 64.982H158.007C156.895 64.982 155.993 65.8837 155.993 66.996V74.425C155.993 75.5373 156.895 76.439 158.007 76.439H165.436C166.548 76.439 167.45 75.5373 167.45 74.425V66.996C167.45 65.8837 166.548 64.982 165.436 64.982Z" stroke="#545456" stroke-width="0.75" stroke-linecap="round" stroke-linejoin="round"/>
<path d="M163.745 70.72C163.745 71.1183 163.627 71.5077 163.406 71.8389C163.184 72.1701 162.87 72.4283 162.502 72.5807C162.134 72.7331 161.729 72.773 161.338 72.6953C160.947 72.6176 160.589 72.4258 160.307 72.1441C160.025 71.8624 159.833 71.5036 159.756 71.1129C159.678 70.7222 159.718 70.3173 159.87 69.9493C160.023 69.5813 160.281 69.2667 160.612 69.0454C160.943 68.8241 161.333 68.706 161.731 68.706C162.265 68.7063 162.777 68.9185 163.155 69.2962C163.532 69.6738 163.745 70.1859 163.745 70.72Z" stroke="#545456" stroke-width="0.75" stroke-linecap="round" stroke-linejoin="round"/>
<path d="M145.448 164.37C145.448 164.697 145.351 165.017 145.169 165.288C144.988 165.56 144.73 165.772 144.428 165.897C144.126 166.022 143.793 166.055 143.473 165.991C143.152 165.927 142.857 165.77 142.626 165.539C142.395 165.308 142.238 165.013 142.174 164.692C142.11 164.372 142.143 164.039 142.268 163.737C142.393 163.435 142.605 163.177 142.877 162.996C143.148 162.814 143.468 162.717 143.795 162.717C144.233 162.717 144.654 162.891 144.964 163.201C145.273 163.511 145.448 163.932 145.448 164.37Z" stroke="#545456" stroke-width="0.75" stroke-linecap="round" stroke-linejoin="round"/>
<path d="M51.4087 40.112V48.32" stroke="#545456" stroke-width="0.75" stroke-linecap="round" stroke-linejoin="round"/>
<path d="M55.5039 44.216H47.2959" stroke="#545456" stroke-width="0.75" stroke-linecap="round" stroke-linejoin="round"/>
<path d="M165.873 164.465C164.057 166.614 162.507 168.975 161.256 171.495C160.503 172.736 159.885 174.055 159.413 175.428C158.076 179.302 159.2 179.206 161.237 176.169C166.414 168.449 168.856 167.695 170.737 166.023" stroke="#545456" stroke-width="0.75" stroke-linecap="round" stroke-linejoin="round"/>
<path d="M159.831 174.288C158.615 175.129 157.293 175.806 155.9 176.3C155.5 176.408 154.875 176.092 156.812 174.419C157.23 174.058 158.958 172.498 159.548 171.911C160.782 170.781 161.95 169.582 163.048 168.32" stroke="#545456" stroke-width="0.75" stroke-linecap="round" stroke-linejoin="round"/>
<path d="M164.486 166.232C165.303 164.522 161.351 165.658 159.622 165.932C158.064 166.176 156.222 165.878 160.135 163.956C162.178 162.975 164.041 161.657 165.645 160.056" stroke="#545456" stroke-width="0.75" stroke-linecap="round" stroke-linejoin="round"/>
<path d="M90.6717 21.093L88.8477 25.9L93.6357 23.943C95.613 25.2323 97.9252 25.9127 100.286 25.9C106.613 25.9 111.743 21.226 111.743 15.45C111.743 9.674 106.632 5 100.305 5C93.9777 5 88.8477 9.674 88.8477 15.45C88.8583 17.4742 89.4955 19.4455 90.6717 21.093Z" stroke="#545456" stroke-width="0.75" stroke-linecap="round" stroke-linejoin="round"/>
<path d="M179.838 143.622L181.282 142.501" stroke="#545456" stroke-width="0.75" stroke-linecap="round" stroke-linejoin="round"/>
<path d="M65.459 80.372L66.979 81.455" stroke="#545456" stroke-width="0.75" stroke-linecap="round" stroke-linejoin="round"/>
<path d="M19.8978 99.619L19.1758 101.348" stroke="#545456" stroke-width="0.75" stroke-linecap="round" stroke-linejoin="round"/>
<path d="M33.5591 104.217C33.3487 104.217 33.1429 104.279 32.968 104.396C32.793 104.513 32.6566 104.679 32.5761 104.874C32.4956 105.068 32.4745 105.282 32.5155 105.489C32.5566 105.695 32.6579 105.885 32.8067 106.033C32.9555 106.182 33.1451 106.283 33.3515 106.325C33.5579 106.366 33.7718 106.345 33.9663 106.264C34.1607 106.183 34.3269 106.047 34.4438 105.872C34.5607 105.697 34.6231 105.491 34.6231 105.281C34.6187 105 34.5052 104.732 34.3066 104.533C34.108 104.335 33.8399 104.221 33.5591 104.217Z" stroke="#545456" stroke-width="0.75"/>
<path d="M18.1119 110.031C18.6995 110.031 19.1759 109.555 19.1759 108.967C19.1759 108.379 18.6995 107.903 18.1119 107.903C17.5242 107.903 17.0479 108.379 17.0479 108.967C17.0479 109.555 17.5242 110.031 18.1119 110.031Z" stroke="#545456" stroke-width="0.75"/>
<path d="M10.5879 95.8C11.1755 95.8 11.6519 95.3236 11.6519 94.736C11.6519 94.1484 11.1755 93.672 10.5879 93.672C10.0003 93.672 9.52393 94.1484 9.52393 94.736C9.52393 95.3236 10.0003 95.8 10.5879 95.8Z" stroke="#545456" stroke-width="0.75"/>
<path d="M23.4126 86.775C24.0002 86.775 24.4766 86.2986 24.4766 85.711C24.4766 85.1234 24.0002 84.647 23.4126 84.647C22.825 84.647 22.3486 85.1234 22.3486 85.711C22.3486 86.2986 22.825 86.775 23.4126 86.775Z" stroke="#545456" stroke-width="0.75"/>
<path d="M28.315 72.278C28.1045 72.278 27.8988 72.3404 27.7239 72.4573C27.5489 72.5742 27.4125 72.7404 27.332 72.9348C27.2514 73.1292 27.2304 73.3432 27.2714 73.5496C27.3125 73.756 27.4138 73.9455 27.5626 74.0943C27.7114 74.2431 27.901 74.3445 28.1074 74.3855C28.3138 74.4266 28.5277 74.4055 28.7222 74.325C28.9166 74.2445 29.0827 74.1081 29.1997 73.9331C29.3166 73.7581 29.379 73.5524 29.379 73.342C29.3746 73.0612 29.2611 72.7931 29.0625 72.5945C28.8639 72.3959 28.5958 72.2824 28.315 72.278Z" stroke="#545456" stroke-width="0.75"/>
<path d="M38.9737 82.956C38.7632 82.956 38.5575 83.0184 38.3825 83.1353C38.2076 83.2522 38.0712 83.4184 37.9907 83.6128C37.9101 83.8072 37.8891 84.0212 37.9301 84.2276C37.9712 84.434 38.0725 84.6236 38.2213 84.7724C38.3701 84.9212 38.5597 85.0225 38.7661 85.0635C38.9725 85.1046 39.1864 85.0835 39.3809 85.003C39.5753 84.9225 39.7414 84.7861 39.8584 84.6111C39.9753 84.4361 40.0377 84.2304 40.0377 84.02C40.0333 83.7392 39.9198 83.4711 39.7212 83.2725C39.5226 83.0739 39.2545 82.9604 38.9737 82.956Z" stroke="#545456" stroke-width="0.75"/>
<path d="M30.3287 92.608C30.1182 92.608 29.9125 92.6704 29.7376 92.7873C29.5626 92.9042 29.4262 93.0704 29.3457 93.2648C29.2651 93.4592 29.2441 93.6732 29.2851 93.8796C29.3262 94.086 29.4275 94.2756 29.5763 94.4244C29.7251 94.5732 29.9147 94.6745 30.1211 94.7156C30.3275 94.7566 30.5414 94.7355 30.7359 94.655C30.9303 94.5745 31.0965 94.4381 31.2134 94.2631C31.3303 94.0882 31.3927 93.8824 31.3927 93.672C31.3929 93.5322 31.3656 93.3937 31.3122 93.2645C31.2589 93.1353 31.1805 93.0179 31.0816 92.9191C30.9828 92.8202 30.8654 92.7418 30.7362 92.6885C30.607 92.6351 30.4685 92.6077 30.3287 92.608Z" stroke="#545456" stroke-width="0.75"/>
<path d="M54.5337 86.775C55.1213 86.775 55.5977 86.2986 55.5977 85.711C55.5977 85.1234 55.1213 84.647 54.5337 84.647C53.946 84.647 53.4697 85.1234 53.4697 85.711C53.4697 86.2986 53.946 86.775 54.5337 86.775Z" stroke="#545456" stroke-width="0.75"/>
<path d="M64.7749 81.7C64.5645 81.7 64.3587 81.7624 64.1838 81.8793C64.0088 81.9962 63.8724 82.1624 63.7919 82.3568C63.7114 82.5512 63.6903 82.7652 63.7313 82.9716C63.7724 83.178 63.8737 83.3675 64.0225 83.5163C64.1713 83.6652 64.3609 83.7665 64.5673 83.8075C64.7737 83.8486 64.9877 83.8275 65.1821 83.747C65.3765 83.6665 65.5427 83.5301 65.6596 83.3551C65.7765 83.1801 65.8389 82.9744 65.8389 82.764C65.8345 82.4832 65.721 82.2151 65.5224 82.0165C65.3238 81.8179 65.0557 81.7044 64.7749 81.7Z" stroke="#545456" stroke-width="0.75"/>
<path d="M77.6758 86.148C78.2634 86.148 78.7398 85.6716 78.7398 85.084C78.7398 84.4964 78.2634 84.02 77.6758 84.02C77.0882 84.02 76.6118 84.4964 76.6118 85.084C76.6118 85.6716 77.0882 86.148 77.6758 86.148Z" stroke="#545456" stroke-width="0.75"/>
<path d="M83.3189 74.691C83.9065 74.691 84.3829 74.2146 84.3829 73.627C84.3829 73.0394 83.9065 72.563 83.3189 72.563C82.7312 72.563 82.2549 73.0394 82.2549 73.627C82.2549 74.2146 82.7312 74.691 83.3189 74.691Z" stroke="#545456" stroke-width="0.75"/>
<path d="M44.1797 94.717C43.9692 94.717 43.7635 94.7794 43.5885 94.8963C43.4136 95.0132 43.2772 95.1794 43.1967 95.3738C43.1161 95.5682 43.0951 95.7822 43.1361 95.9886C43.1772 96.195 43.2785 96.3845 43.4273 96.5333C43.5761 96.6821 43.7657 96.7835 43.9721 96.8245C44.1785 96.8656 44.3924 96.8445 44.5868 96.764C44.7813 96.6835 44.9474 96.5471 45.0643 96.3721C45.1813 96.1971 45.2437 95.9914 45.2437 95.781C45.2393 95.5002 45.1258 95.2321 44.9272 95.0335C44.7286 94.8349 44.4605 94.7214 44.1797 94.717Z" stroke="#545456" stroke-width="0.75"/>
<path d="M46.2891 74.026C46.8767 74.026 47.3531 73.5496 47.3531 72.962C47.3531 72.3744 46.8767 71.898 46.2891 71.898C45.7014 71.898 45.2251 72.3744 45.2251 72.962C45.2251 73.5496 45.7014 74.026 46.2891 74.026Z" stroke="#545456" stroke-width="0.75"/>
<defs>
<linearGradient id="paint0_linear_205_1086" x1="189.979" y1="153.54" x2="87.6888" y2="148.722" gradientUnits="userSpaceOnUse">
<stop stop-color="#0066FF"/>
<stop offset="0.299296" stop-color="#7044CE" stop-opacity="0.936844"/>
<stop offset="0.799113" stop-color="#FF006B" stop-opacity="0.81"/>
<stop offset="1" stop-color="#FF006B" stop-opacity="0"/>
</linearGradient>
<linearGradient id="paint1_linear_205_1086" x1="84.2495" y1="106.704" x2="-39.5881" y2="94.4259" gradientUnits="userSpaceOnUse">
<stop stop-color="#0066FF"/>
<stop offset="0.299296" stop-color="#7044CE" stop-opacity="0.936844"/>
<stop offset="0.799113" stop-color="#FF006B" stop-opacity="0.81"/>
<stop offset="1" stop-color="#FF006B" stop-opacity="0"/>
</linearGradient>
<linearGradient id="paint2_linear_205_1086" x1="34.4887" y1="105.968" x2="31.3307" y2="105.797" gradientUnits="userSpaceOnUse">
<stop stop-color="#0066FF"/>
<stop offset="0.299296" stop-color="#7044CE" stop-opacity="0.936844"/>
<stop offset="0.799113" stop-color="#FF006B" stop-opacity="0.81"/>
<stop offset="1" stop-color="#FF006B" stop-opacity="0"/>
</linearGradient>
<linearGradient id="paint3_linear_205_1086" x1="19.0414" y1="109.654" x2="15.8835" y2="109.483" gradientUnits="userSpaceOnUse">
<stop stop-color="#0066FF"/>
<stop offset="0.299296" stop-color="#7044CE" stop-opacity="0.936844"/>
<stop offset="0.799113" stop-color="#FF006B" stop-opacity="0.81"/>
<stop offset="1" stop-color="#FF006B" stop-opacity="0"/>
</linearGradient>
<linearGradient id="paint4_linear_205_1086" x1="11.5175" y1="95.4226" x2="8.35954" y2="95.252" gradientUnits="userSpaceOnUse">
<stop stop-color="#0066FF"/>
<stop offset="0.299296" stop-color="#7044CE" stop-opacity="0.936844"/>
<stop offset="0.799113" stop-color="#FF006B" stop-opacity="0.81"/>
<stop offset="1" stop-color="#FF006B" stop-opacity="0"/>
</linearGradient>
<linearGradient id="paint5_linear_205_1086" x1="24.3422" y1="86.3976" x2="21.1843" y2="86.227" gradientUnits="userSpaceOnUse">
<stop stop-color="#0066FF"/>
<stop offset="0.299296" stop-color="#7044CE" stop-opacity="0.936844"/>
<stop offset="0.799113" stop-color="#FF006B" stop-opacity="0.81"/>
<stop offset="1" stop-color="#FF006B" stop-opacity="0"/>
</linearGradient>
<linearGradient id="paint6_linear_205_1086" x1="29.2445" y1="74.0286" x2="26.0866" y2="73.858" gradientUnits="userSpaceOnUse">
<stop stop-color="#0066FF"/>
<stop offset="0.299296" stop-color="#7044CE" stop-opacity="0.936844"/>
<stop offset="0.799113" stop-color="#FF006B" stop-opacity="0.81"/>
<stop offset="1" stop-color="#FF006B" stop-opacity="0"/>
</linearGradient>
<linearGradient id="paint7_linear_205_1086" x1="39.9032" y1="84.7066" x2="36.7453" y2="84.536" gradientUnits="userSpaceOnUse">
<stop stop-color="#0066FF"/>
<stop offset="0.299296" stop-color="#7044CE" stop-opacity="0.936844"/>
<stop offset="0.799113" stop-color="#FF006B" stop-opacity="0.81"/>
<stop offset="1" stop-color="#FF006B" stop-opacity="0"/>
</linearGradient>
<linearGradient id="paint8_linear_205_1086" x1="31.2582" y1="94.3586" x2="28.1003" y2="94.188" gradientUnits="userSpaceOnUse">
<stop stop-color="#0066FF"/>
<stop offset="0.299296" stop-color="#7044CE" stop-opacity="0.936844"/>
<stop offset="0.799113" stop-color="#FF006B" stop-opacity="0.81"/>
<stop offset="1" stop-color="#FF006B" stop-opacity="0"/>
</linearGradient>
<linearGradient id="paint9_linear_205_1086" x1="55.4633" y1="86.3976" x2="52.3053" y2="86.227" gradientUnits="userSpaceOnUse">
<stop stop-color="#0066FF"/>
<stop offset="0.299296" stop-color="#7044CE" stop-opacity="0.936844"/>
<stop offset="0.799113" stop-color="#FF006B" stop-opacity="0.81"/>
<stop offset="1" stop-color="#FF006B" stop-opacity="0"/>
</linearGradient>
<linearGradient id="paint10_linear_205_1086" x1="65.7045" y1="83.4506" x2="62.5466" y2="83.28" gradientUnits="userSpaceOnUse">
<stop stop-color="#0066FF"/>
<stop offset="0.299296" stop-color="#7044CE" stop-opacity="0.936844"/>
<stop offset="0.799113" stop-color="#FF006B" stop-opacity="0.81"/>
<stop offset="1" stop-color="#FF006B" stop-opacity="0"/>
</linearGradient>
<linearGradient id="paint11_linear_205_1086" x1="78.6053" y1="85.7706" x2="75.4474" y2="85.6" gradientUnits="userSpaceOnUse">
<stop stop-color="#0066FF"/>
<stop offset="0.299296" stop-color="#7044CE" stop-opacity="0.936844"/>
<stop offset="0.799113" stop-color="#FF006B" stop-opacity="0.81"/>
<stop offset="1" stop-color="#FF006B" stop-opacity="0"/>
</linearGradient>
<linearGradient id="paint12_linear_205_1086" x1="84.2484" y1="74.3136" x2="81.0905" y2="74.143" gradientUnits="userSpaceOnUse">
<stop stop-color="#0066FF"/>
<stop offset="0.299296" stop-color="#7044CE" stop-opacity="0.936844"/>
<stop offset="0.799113" stop-color="#FF006B" stop-opacity="0.81"/>
<stop offset="1" stop-color="#FF006B" stop-opacity="0"/>
</linearGradient>
<linearGradient id="paint13_linear_205_1086" x1="45.1093" y1="96.4676" x2="41.9513" y2="96.297" gradientUnits="userSpaceOnUse">
<stop stop-color="#0066FF"/>
<stop offset="0.299296" stop-color="#7044CE" stop-opacity="0.936844"/>
<stop offset="0.799113" stop-color="#FF006B" stop-opacity="0.81"/>
<stop offset="1" stop-color="#FF006B" stop-opacity="0"/>
</linearGradient>
<linearGradient id="paint14_linear_205_1086" x1="47.2186" y1="73.6486" x2="44.0607" y2="73.478" gradientUnits="userSpaceOnUse">
<stop stop-color="#0066FF"/>
<stop offset="0.299296" stop-color="#7044CE" stop-opacity="0.936844"/>
<stop offset="0.799113" stop-color="#FF006B" stop-opacity="0.81"/>
<stop offset="1" stop-color="#FF006B" stop-opacity="0"/>
</linearGradient>
<linearGradient id="paint15_linear_205_1086" x1="110.296" y1="22.1935" x2="76.34" y2="20.1844" gradientUnits="userSpaceOnUse">
<stop stop-color="#0066FF"/>
<stop offset="0.299296" stop-color="#7044CE" stop-opacity="0.936844"/>
<stop offset="0.799113" stop-color="#FF006B" stop-opacity="0.81"/>
<stop offset="1" stop-color="#FF006B" stop-opacity="0"/>
</linearGradient>
<linearGradient id="paint16_linear_205_1086" x1="163.49" y1="72.0196" x2="157.513" y2="71.6968" gradientUnits="userSpaceOnUse">
<stop stop-color="#0066FF"/>
<stop offset="0.299296" stop-color="#7044CE" stop-opacity="0.936844"/>
<stop offset="0.799113" stop-color="#FF006B" stop-opacity="0.81"/>
<stop offset="1" stop-color="#FF006B" stop-opacity="0"/>
</linearGradient>
<linearGradient id="paint17_linear_205_1086" x1="87.0649" y1="192.787" x2="58.158" y2="190.345" gradientUnits="userSpaceOnUse">
<stop stop-color="#0066FF"/>
<stop offset="0.299296" stop-color="#7044CE" stop-opacity="0.936844"/>
<stop offset="0.799113" stop-color="#FF006B" stop-opacity="0.81"/>
<stop offset="1" stop-color="#FF006B" stop-opacity="0"/>
</linearGradient>
<linearGradient id="paint18_linear_205_1086" x1="129.563" y1="91.4335" x2="22.9593" y2="84.9043" gradientUnits="userSpaceOnUse">
<stop stop-color="#0066FF"/>
<stop offset="0.299296" stop-color="#7044CE" stop-opacity="0.936844"/>
<stop offset="0.799113" stop-color="#FF006B" stop-opacity="0.81"/>
<stop offset="1" stop-color="#FF006B" stop-opacity="0"/>
</linearGradient>
<linearGradient id="paint19_linear_205_1086" x1="129.562" y1="162.718" x2="22.9205" y2="156.264" gradientUnits="userSpaceOnUse">
<stop stop-color="#0066FF"/>
<stop offset="0.299296" stop-color="#7044CE" stop-opacity="0.936844"/>
<stop offset="0.799113" stop-color="#FF006B" stop-opacity="0.81"/>
<stop offset="1" stop-color="#FF006B" stop-opacity="0"/>
</linearGradient>
<linearGradient id="paint20_linear_205_1086" x1="163.232" y1="112.811" x2="160.551" y2="112.687" gradientUnits="userSpaceOnUse">
<stop stop-color="#0066FF"/>
<stop offset="0.299296" stop-color="#7044CE" stop-opacity="0.936844"/>
<stop offset="0.799113" stop-color="#FF006B" stop-opacity="0.81"/>
<stop offset="1" stop-color="#FF006B" stop-opacity="0"/>
</linearGradient>
<linearGradient id="paint21_linear_205_1086" x1="37.718" y1="67.241" x2="35.791" y2="67.1813" gradientUnits="userSpaceOnUse">
<stop stop-color="#0066FF"/>
<stop offset="0.299296" stop-color="#7044CE" stop-opacity="0.936844"/>
<stop offset="0.799113" stop-color="#FF006B" stop-opacity="0.81"/>
<stop offset="1" stop-color="#FF006B" stop-opacity="0"/>
</linearGradient>
<linearGradient id="paint22_linear_205_1086" x1="25.3355" y1="93.6219" x2="23.1808" y2="93.5946" gradientUnits="userSpaceOnUse">
<stop stop-color="#0066FF"/>
<stop offset="0.299296" stop-color="#7044CE" stop-opacity="0.936844"/>
<stop offset="0.799113" stop-color="#FF006B" stop-opacity="0.81"/>
<stop offset="1" stop-color="#FF006B" stop-opacity="0"/>
</linearGradient>
<linearGradient id="paint23_linear_205_1086" x1="51.2707" y1="86.3361" x2="47.4021" y2="86.272" gradientUnits="userSpaceOnUse">
<stop stop-color="#0066FF"/>
<stop offset="0.299296" stop-color="#7044CE" stop-opacity="0.936844"/>
<stop offset="0.799113" stop-color="#FF006B" stop-opacity="0.81"/>
<stop offset="1" stop-color="#FF006B" stop-opacity="0"/>
</linearGradient>
<linearGradient id="paint24_linear_205_1086" x1="42.3311" y1="63.5691" x2="23.3829" y2="62.8237" gradientUnits="userSpaceOnUse">
<stop stop-color="#0066FF"/>
<stop offset="0.299296" stop-color="#7044CE" stop-opacity="0.936844"/>
<stop offset="0.799113" stop-color="#FF006B" stop-opacity="0.81"/>
<stop offset="1" stop-color="#FF006B" stop-opacity="0"/>
</linearGradient>
<linearGradient id="paint25_linear_205_1086" x1="165.804" y1="67.7308" x2="163.746" y2="67.6153" gradientUnits="userSpaceOnUse">
<stop stop-color="#0066FF"/>
<stop offset="0.299296" stop-color="#7044CE" stop-opacity="0.936844"/>
<stop offset="0.799113" stop-color="#FF006B" stop-opacity="0.81"/>
<stop offset="1" stop-color="#FF006B" stop-opacity="0"/>
</linearGradient>
<linearGradient id="paint26_linear_205_1086" x1="182.73" y1="120.898" x2="150.207" y2="119.59" gradientUnits="userSpaceOnUse">
<stop stop-color="#0066FF"/>
<stop offset="0.299296" stop-color="#7044CE" stop-opacity="0.936844"/>
<stop offset="0.799113" stop-color="#FF006B" stop-opacity="0.81"/>
<stop offset="1" stop-color="#FF006B" stop-opacity="0"/>
</linearGradient>
</defs>
</svg>
