<svg width="162" height="26" viewBox="0 0 162 26" fill="none" xmlns="http://www.w3.org/2000/svg">
<path d="M7.39519 20L0.983188 0.399999H5.68719L11.2592 17.76H8.90719L14.7312 0.399999H18.9312L24.5312 17.76H22.2632L27.9752 0.399999H32.3152L25.9032 20H21.0312L16.0752 4.768H17.3632L12.2672 20H7.39519ZM33.3474 20V0.399999H41.8314C43.5861 0.399999 45.0981 0.689332 46.3674 1.268C47.6368 1.828 48.6168 2.64 49.3074 3.704C49.9981 4.768 50.3434 6.03733 50.3434 7.512C50.3434 8.968 49.9981 10.228 49.3074 11.292C48.6168 12.356 47.6368 13.1773 46.3674 13.756C45.0981 14.316 43.5861 14.596 41.8314 14.596H35.8674L37.8834 12.552V20H33.3474ZM37.8834 13.056L35.8674 10.9H41.5794C42.9794 10.9 44.0248 10.6013 44.7154 10.004C45.4061 9.40667 45.7514 8.576 45.7514 7.512C45.7514 6.42933 45.4061 5.58933 44.7154 4.992C44.0248 4.39467 42.9794 4.096 41.5794 4.096H35.8674L37.8834 1.94V13.056ZM62.2994 20L55.8034 5.16H58.6034L64.3714 18.6H63.0274L68.9074 5.16H71.5394L65.0434 20H62.2994ZM81.2952 20V16.864L81.1552 16.276V10.928C81.1552 9.78933 80.8192 8.912 80.1472 8.296C79.4938 7.66133 78.5045 7.344 77.1792 7.344C76.3018 7.344 75.4432 7.49333 74.6032 7.792C73.7632 8.072 73.0538 8.45467 72.4752 8.94L71.3552 6.924C72.1205 6.308 73.0352 5.84133 74.0992 5.524C75.1818 5.188 76.3112 5.02 77.4872 5.02C79.5218 5.02 81.0898 5.51467 82.1912 6.504C83.2925 7.49333 83.8432 9.00533 83.8432 11.04V20H81.2952ZM76.4232 20.168C75.3218 20.168 74.3512 19.9813 73.5112 19.608C72.6898 19.2347 72.0552 18.7213 71.6072 18.068C71.1592 17.396 70.9352 16.64 70.9352 15.8C70.9352 14.9973 71.1218 14.2693 71.4952 13.616C71.8872 12.9627 72.5125 12.44 73.3712 12.048C74.2485 11.656 75.4245 11.46 76.8992 11.46H81.6032V13.392H77.0112C75.6672 13.392 74.7618 13.616 74.2952 14.064C73.8285 14.512 73.5952 15.0533 73.5952 15.688C73.5952 16.416 73.8845 17.004 74.4632 17.452C75.0418 17.8813 75.8445 18.096 76.8712 18.096C77.8792 18.096 78.7565 17.872 79.5032 17.424C80.2685 16.976 80.8192 16.3227 81.1552 15.464L81.6872 17.312C81.3325 18.1893 80.7072 18.8893 79.8112 19.412C78.9152 19.916 77.7858 20.168 76.4232 20.168ZM95.2415 5.02C96.4549 5.02 97.5189 5.25333 98.4335 5.72C99.3669 6.18667 100.095 6.896 100.618 7.848C101.14 8.8 101.402 10.004 101.402 11.46V20H98.7135V11.768C98.7135 10.3307 98.3589 9.248 97.6495 8.52C96.9589 7.792 95.9789 7.428 94.7095 7.428C93.7575 7.428 92.9269 7.61467 92.2175 7.988C91.5082 8.36133 90.9575 8.912 90.5655 9.64C90.1922 10.368 90.0055 11.2733 90.0055 12.356V20H87.3175V5.16H89.8935V9.164L89.4735 8.1C89.9589 7.12933 90.7055 6.37333 91.7135 5.832C92.7215 5.29067 93.8975 5.02 95.2415 5.02ZM109.972 20.168C108.479 20.168 107.321 19.7667 106.5 18.964C105.679 18.1613 105.268 17.0133 105.268 15.52V1.912H107.956V15.408C107.956 16.2107 108.152 16.8267 108.544 17.256C108.955 17.6853 109.533 17.9 110.28 17.9C111.12 17.9 111.82 17.6667 112.38 17.2L113.22 19.132C112.809 19.4867 112.315 19.748 111.736 19.916C111.176 20.084 110.588 20.168 109.972 20.168ZM102.748 7.372V5.16H112.212V7.372H102.748ZM124.182 20V16.864L124.042 16.276V10.928C124.042 9.78933 123.706 8.912 123.034 8.296C122.381 7.66133 121.391 7.344 120.066 7.344C119.189 7.344 118.33 7.49333 117.49 7.792C116.65 8.072 115.941 8.45467 115.362 8.94L114.242 6.924C115.007 6.308 115.922 5.84133 116.986 5.524C118.069 5.188 119.198 5.02 120.374 5.02C122.409 5.02 123.977 5.51467 125.078 6.504C126.179 7.49333 126.73 9.00533 126.73 11.04V20H124.182ZM119.31 20.168C118.209 20.168 117.238 19.9813 116.398 19.608C115.577 19.2347 114.942 18.7213 114.494 18.068C114.046 17.396 113.822 16.64 113.822 15.8C113.822 14.9973 114.009 14.2693 114.382 13.616C114.774 12.9627 115.399 12.44 116.258 12.048C117.135 11.656 118.311 11.46 119.786 11.46H124.49V13.392H119.898C118.554 13.392 117.649 13.616 117.182 14.064C116.715 14.512 116.482 15.0533 116.482 15.688C116.482 16.416 116.771 17.004 117.35 17.452C117.929 17.8813 118.731 18.096 119.758 18.096C120.766 18.096 121.643 17.872 122.39 17.424C123.155 16.976 123.706 16.3227 124.042 15.464L124.574 17.312C124.219 18.1893 123.594 18.8893 122.698 19.412C121.802 19.916 120.673 20.168 119.31 20.168ZM136.7 25.6C135.338 25.6 134.012 25.404 132.724 25.012C131.455 24.6387 130.419 24.0973 129.616 23.388L130.904 21.316C131.595 21.9133 132.444 22.38 133.452 22.716C134.46 23.0707 135.515 23.248 136.616 23.248C138.371 23.248 139.659 22.8373 140.48 22.016C141.302 21.1947 141.712 19.944 141.712 18.264V15.128L141.992 12.188L141.852 9.22V5.16H144.4V17.984C144.4 20.5973 143.747 22.52 142.44 23.752C141.134 24.984 139.22 25.6 136.7 25.6ZM136.364 19.384C134.927 19.384 133.639 19.0853 132.5 18.488C131.38 17.872 130.484 17.0227 129.812 15.94C129.159 14.8573 128.832 13.6067 128.832 12.188C128.832 10.7507 129.159 9.5 129.812 8.436C130.484 7.35333 131.38 6.51333 132.5 5.916C133.639 5.31867 134.927 5.02 136.364 5.02C137.634 5.02 138.791 5.28133 139.836 5.804C140.882 6.308 141.712 7.092 142.328 8.156C142.963 9.22 143.28 10.564 143.28 12.188C143.28 13.7933 142.963 15.128 142.328 16.192C141.712 17.256 140.882 18.0587 139.836 18.6C138.791 19.1227 137.634 19.384 136.364 19.384ZM136.672 17.032C137.662 17.032 138.539 16.8267 139.304 16.416C140.07 16.0053 140.667 15.436 141.096 14.708C141.544 13.98 141.768 13.14 141.768 12.188C141.768 11.236 141.544 10.396 141.096 9.668C140.667 8.94 140.07 8.38 139.304 7.988C138.539 7.57733 137.662 7.372 136.672 7.372C135.683 7.372 134.796 7.57733 134.012 7.988C133.247 8.38 132.64 8.94 132.192 9.668C131.763 10.396 131.548 11.236 131.548 12.188C131.548 13.14 131.763 13.98 132.192 14.708C132.64 15.436 133.247 16.0053 134.012 16.416C134.796 16.8267 135.683 17.032 136.672 17.032ZM154.644 20.168C153.058 20.168 151.658 19.8413 150.444 19.188C149.25 18.5347 148.316 17.6387 147.644 16.5C146.991 15.3613 146.664 14.0547 146.664 12.58C146.664 11.1053 146.982 9.79867 147.616 8.66C148.27 7.52133 149.156 6.63467 150.276 6C151.415 5.34667 152.694 5.02 154.112 5.02C155.55 5.02 156.819 5.33733 157.92 5.972C159.022 6.60667 159.88 7.50267 160.496 8.66C161.131 9.79867 161.448 11.1333 161.448 12.664C161.448 12.776 161.439 12.9067 161.42 13.056C161.42 13.2053 161.411 13.3453 161.392 13.476H148.764V11.544H159.992L158.9 12.216C158.919 11.264 158.723 10.4147 158.312 9.668C157.902 8.92133 157.332 8.34267 156.604 7.932C155.895 7.50267 155.064 7.288 154.112 7.288C153.179 7.288 152.348 7.50267 151.62 7.932C150.892 8.34267 150.323 8.93067 149.912 9.696C149.502 10.4427 149.296 11.3013 149.296 12.272V12.72C149.296 13.7093 149.52 14.596 149.968 15.38C150.435 16.1453 151.079 16.7427 151.9 17.172C152.722 17.6013 153.664 17.816 154.728 17.816C155.606 17.816 156.399 17.6667 157.108 17.368C157.836 17.0693 158.471 16.6213 159.012 16.024L160.496 17.76C159.824 18.544 158.984 19.1413 157.976 19.552C156.987 19.9627 155.876 20.168 154.644 20.168Z" fill="black"/>
</svg>
