<svg width="555" height="546" viewBox="0 0 555 546" fill="none" xmlns="http://www.w3.org/2000/svg">
<path d="M269.99 171.259C269.229 163.144 262.535 160.9 258.317 163.759C252.913 167.335 251.547 178.226 256.596 182.413C257.425 183.065 258.372 183.541 259.381 183.815C260.39 184.088 261.44 184.153 262.469 184.005C263.497 183.857 264.482 183.499 265.365 182.953C266.248 182.406 267.012 181.683 267.61 180.826C269.505 178.045 270.35 174.651 269.99 171.259Z" fill="url(#paint0_linear_205_598)"/>
<path d="M376.289 250.137C412.533 245.987 439.212 242.805 456.017 241.357C447.961 240.452 448.103 192.62 455.662 191.284C354.738 200.621 349.433 201.322 340.87 204.547C332.773 207.61 323.687 216.05 285.163 250.847C280.303 251.55 247.221 259.017 239.07 261.045C240.865 271.758 234.815 292.582 222.355 301.584C225.369 309.236 229.598 316.347 234.87 322.633C236.85 320.189 238.625 317.579 240.179 314.831C242.148 311.225 245.978 312.334 240.271 326.369C243.026 325.188 245.925 324.373 248.896 323.951C250.369 323.927 267.535 327.567 275.544 329.155C279.293 329.853 280.291 334.706 258.9 331.81C263.505 333.56 269.005 335.519 274.068 337.164C289.584 338.28 305.225 325.925 319.47 309.519C331.597 294.864 342.76 279.409 352.893 263.25C349.342 273.175 342.978 291.942 339.73 298.426L348.184 294.684C357.148 303.204 408.687 352.219 417.952 360.398C411.451 353.554 441.734 319.083 448.894 324.39C435.828 309.43 388.801 261.45 376.289 250.137Z" fill="url(#paint1_linear_205_598)"/>
<path d="M188.912 428.021L179.728 427.955L179.856 444.96L189.04 445.025L188.912 428.021Z" fill="url(#paint2_linear_205_598)"/>
<path d="M201.83 428.04L192.643 427.982L192.778 444.99L201.964 445.051L201.83 428.04Z" fill="url(#paint3_linear_205_598)"/>
<path d="M214.341 428.007L205.157 427.943L205.286 444.948L214.47 445.014L214.341 428.007Z" fill="url(#paint4_linear_205_598)"/>
<path d="M227.055 428.002L217.871 427.937L218 444.944L227.184 445.007L227.055 428.002Z" fill="url(#paint5_linear_205_598)"/>
<path d="M239.983 428.007L230.796 427.946L230.931 444.957L240.118 445.016L239.983 428.007Z" fill="url(#paint6_linear_205_598)"/>
<path d="M252.486 427.986L243.303 427.923L243.431 444.928L252.614 444.993L252.486 427.986Z" fill="url(#paint7_linear_205_598)"/>
<path d="M265.2 427.981L256.016 427.918L256.145 444.923L265.328 444.986L265.2 427.981Z" fill="url(#paint8_linear_205_598)"/>
<path d="M277.915 427.974L268.731 427.911L268.859 444.916L278.045 444.979L277.915 427.974Z" fill="url(#paint9_linear_205_598)"/>
<path d="M290.629 427.97L281.446 427.904L281.574 444.909L290.76 444.975L290.629 427.97Z" fill="url(#paint10_linear_205_598)"/>
<path d="M303.344 427.96L294.16 427.897L294.288 444.902L303.475 444.965L303.344 427.96Z" fill="url(#paint11_linear_205_598)"/>
<path d="M316.058 427.953L306.874 427.89L307.002 444.895L316.188 444.961L316.058 427.953Z" fill="url(#paint12_linear_205_598)"/>
<path d="M440.195 386.435C440.181 384.516 439.792 382.612 439.052 380.833C438.311 379.053 437.233 377.434 435.878 376.07C434.524 374.703 432.921 373.616 431.16 372.871C429.401 372.128 427.516 371.739 425.617 371.729L176.03 370.025L177.296 373.212L164.9 370.92C162.178 371.953 159.844 373.804 158.21 376.23C156.576 378.653 155.719 381.533 155.754 384.488L155.841 400.895L440.184 402.874L440.195 386.435ZM378.019 394.332C376.569 394.064 375.221 393.366 374.151 392.331C373.081 391.294 372.332 389.964 372.002 388.509C371.672 387.054 371.776 385.54 372.3 384.155C372.821 382.772 373.741 381.582 374.94 380.739C376.137 379.893 377.563 379.429 379.033 379.408C380.506 379.385 381.957 379.803 383.204 380.612C384.451 381.42 385.439 382.582 386.043 383.948C386.645 385.313 386.837 386.825 386.592 388.288C386.262 390.25 385.176 391.987 383.569 393.122C381.959 394.255 379.966 394.689 378.019 394.332ZM400.837 394.466C399.386 394.197 398.039 393.5 396.968 392.465C395.898 391.428 395.149 390.098 394.819 388.643C394.489 387.188 394.593 385.674 395.117 384.289C395.638 382.906 396.559 381.716 397.758 380.873C398.955 380.027 400.381 379.563 401.851 379.542C403.324 379.519 404.775 379.937 406.022 380.746C407.269 381.554 408.256 382.716 408.86 384.081C409.462 385.447 409.654 386.959 409.41 388.421C409.082 390.387 407.995 392.126 406.388 393.262C404.781 394.397 402.784 394.833 400.835 394.476L400.837 394.466ZM423.646 394.647C422.196 394.379 420.848 393.682 419.778 392.647C418.708 391.61 417.959 390.279 417.629 388.825C417.299 387.37 417.403 385.855 417.927 384.47C418.448 383.087 419.368 381.898 420.567 381.055C421.764 380.209 423.19 379.744 424.66 379.723C426.133 379.7 427.584 380.119 428.831 380.927C430.078 381.736 431.066 382.897 431.67 384.263C432.272 385.628 432.464 387.14 432.22 388.603C431.889 390.565 430.803 392.302 429.196 393.438C427.586 394.57 425.593 395.004 423.646 394.647Z" fill="url(#paint13_linear_205_598)"/>
<path d="M398.067 163.144C391.679 140.237 380.979 118.752 366.569 99.8903C360.025 104.888 355.446 112.087 353.624 120.235C351.802 128.382 352.857 136.963 356.603 144.484C360.349 152.005 366.549 157.991 374.124 161.4C381.7 164.809 390.172 165.426 398.067 163.144Z" fill="url(#paint14_linear_205_598)"/>
<path d="M450.879 201.794C454.203 201.506 457.432 200.567 460.387 199.029C459.751 193.404 458.12 190.098 456.405 189.669C452.982 188.814 451.336 198.263 450.879 201.794Z" fill="url(#paint15_linear_205_598)"/>
<path d="M460.676 228.371C460.42 236.139 458.164 240.26 455.801 240.009C453.824 239.799 451.681 236.157 450.599 228.189C454.233 228.168 457.568 228.191 460.676 228.371Z" fill="url(#paint16_linear_205_598)"/>
<path d="M448.104 323.826C446.624 322.705 442.247 323.681 436.08 328.655C438.896 331.257 441.962 333.56 445.231 335.529C449.663 330.083 449.592 324.898 448.104 323.826Z" fill="url(#paint17_linear_205_598)"/>
<path d="M419.827 347.809C415.871 354.538 415.669 358.68 417.048 360.126C418.687 361.775 423.305 360.842 428.277 355.405C425.735 352.575 422.9 350.028 419.827 347.809Z" fill="url(#paint18_linear_205_598)"/>
<path d="M322.133 306.297C325.864 304.595 332.408 301.669 339.75 298.393C343.506 290.909 350.893 269.58 353.829 261.694C344.033 277.115 333.452 292.003 322.133 306.297Z" fill="url(#paint19_linear_205_598)"/>
<path d="M283.481 170.767C283.176 172.897 282.792 176.393 282.372 180.697C277.498 181.73 272.444 181.639 267.577 180.43C269.463 177.652 270.299 174.265 269.935 170.881C272.368 171.334 280.374 172.078 283.481 170.767Z" fill="url(#paint20_linear_205_598)"/>
<path d="M278.265 222.573C277.895 226.284 277.652 229.222 277.451 231.024C280.33 231.27 286.249 231.381 286.066 228.458C285.948 226.544 283.021 224.081 278.265 222.573Z" fill="url(#paint21_linear_205_598)"/>
<path d="M249.632 223.08C246.456 221.193 245.231 219.421 245.254 218.069C245.289 215.832 248.057 215.101 250.966 215.043L249.632 223.08Z" fill="url(#paint22_linear_205_598)"/>
<path d="M186.984 362.84C185.818 369.867 183.009 373.756 180.273 374.09C176.094 374.598 174.928 367.087 174.697 362.743C177.035 362.83 181.538 362.871 186.984 362.84Z" fill="url(#paint23_linear_205_598)"/>
<path d="M186.219 326.342C183.212 325.208 180.813 329.03 179.534 331.97C182.264 332.329 185.626 332.706 189.329 333.096C189.554 331.793 189.376 330.444 188.82 329.233C188.263 328.025 187.355 327.015 186.219 326.342Z" fill="url(#paint24_linear_205_598)"/>
<path d="M203.98 303.804C194.347 304.143 185.307 304.147 179.293 304.168C181.512 300.524 183.818 296.937 186.027 293.942C191.689 297.81 197.702 301.113 203.98 303.804Z" fill="url(#paint25_linear_205_598)"/>
<path d="M163.908 179.678C156.104 175.177 146.906 173.985 138.336 176.364C129.766 178.744 122.526 184.5 118.206 192.367C116.99 190.144 115.332 188.198 113.338 186.657C111.345 185.116 109.06 184.014 106.634 183.423C104.208 182.831 101.694 182.764 99.2553 183.224C96.8168 183.684 94.5082 184.662 92.4795 186.095C90.4508 187.527 88.7473 189.382 87.4797 191.539C86.2121 193.695 85.4087 196.105 85.1215 198.613C84.8346 201.12 85.0703 203.668 85.8137 206.092C86.5571 208.516 87.7911 210.761 89.436 212.681C92.5862 216.263 96.9601 218.486 101.641 218.884C106.322 219.281 110.946 217.823 114.544 214.814C116.074 223.518 120.845 231.332 127.861 236.624C134.876 241.915 143.593 244.274 152.188 243.207C151.707 231.364 148.397 223.595 146.814 223.402C139.037 222.502 139.145 214.483 146.254 217.343C149.866 218.858 147.306 212.775 145.089 208.74C150.458 207.008 155.473 204.33 159.908 200.826C174.046 217.35 177.137 229.388 165.37 229.234L158.961 228.341C162.786 230.959 167.073 232.786 171.575 233.713C176.447 228.8 179.674 222.446 180.807 215.53C181.959 208.565 180.952 201.376 177.925 194.955C174.899 188.534 170.001 183.196 163.908 179.678Z" fill="url(#paint26_linear_205_598)"/>
<path d="M164.629 371.111C161.915 372.167 159.591 374.033 157.957 376.467C156.323 378.902 155.456 381.789 155.47 384.753L155.969 457.898C156.007 461.794 157.564 465.54 160.301 468.312C163.037 471.084 166.73 472.655 170.567 472.685L426.356 474.497C428.257 474.512 430.137 474.144 431.888 473.417C433.64 472.69 435.228 471.617 436.56 470.26C437.894 468.903 438.947 467.288 439.659 465.509C440.369 463.731 440.728 461.82 440.709 459.889L440.211 386.744C440.197 384.814 439.808 382.9 439.066 381.111C438.324 379.322 437.245 377.694 435.888 376.322C434.532 374.947 432.926 373.855 431.163 373.105C429.399 372.358 427.514 371.967 425.612 371.957L183.672 370.301" stroke="#505050" stroke-width="0.75" stroke-linecap="round" stroke-linejoin="round"/>
<path d="M155.99 401.105L440.149 403.029" stroke="#505050" stroke-width="0.75" stroke-linecap="round" stroke-linejoin="round"/>
<path d="M421.55 423.415L174.354 421.701L174.565 449.476L421.76 451.189L421.55 423.415Z" stroke="#505050" stroke-width="0.75" stroke-linecap="round" stroke-linejoin="round"/>
<path d="M373.179 317.831C358.254 339.497 338.908 357.332 316.639 370.281M404.204 196.421C400.023 153.837 381.267 113.889 351.224 83.5737C321.18 53.2585 281.764 34.5085 239.877 30.6075C197.99 26.7064 156.303 37.9034 122.118 62.2371C87.9333 86.5708 63.4291 122.49 52.8976 163.703C42.366 204.917 46.4786 248.797 64.5147 287.661C82.5511 326.522 113.361 357.888 151.549 376.265C153.581 377.243 155.627 378.181 157.685 379.08" stroke="white" stroke-width="0.75" stroke-linecap="round" stroke-linejoin="round"/>
<path d="M400.926 246.464C399.577 253.766 397.792 260.975 395.576 268.05" stroke="#505050" stroke-width="0.75" stroke-linecap="round" stroke-linejoin="round"/>
<path d="M382.112 163.789C401.282 167.355 419.439 154.477 422.666 135.025C425.893 115.573 412.968 96.9129 393.799 93.3465C374.63 89.78 356.473 102.658 353.245 122.11C350.018 141.562 362.943 160.222 382.112 163.789Z" stroke="white" stroke-width="0.75" stroke-linecap="round" stroke-linejoin="round"/>
<path d="M167.833 120.5L197.158 120.708" stroke="#505050" stroke-width="0.75" stroke-linecap="round" stroke-linejoin="round"/>
<path d="M197.204 168.876L167.879 168.668" stroke="#505050" stroke-width="0.75" stroke-linecap="round" stroke-linejoin="round"/>
<path d="M172.226 168.666C172.122 164.13 172.987 159.639 174.764 155.501C176.54 151.363 179.185 147.674 182.518 144.688C185.851 141.702 188.496 138.014 190.272 133.875C192.049 129.737 192.914 125.246 192.81 120.71" stroke="#505050" stroke-width="0.75" stroke-linecap="round" stroke-linejoin="round"/>
<path d="M193.12 168.735C193.174 164.214 192.264 159.72 190.451 155.564C188.639 151.407 185.968 147.686 182.622 144.657C179.26 141.642 176.571 137.93 174.74 133.779C172.91 129.627 171.981 125.134 172.02 120.609" stroke="#505050" stroke-width="0.75" stroke-linecap="round" stroke-linejoin="round"/>
<path d="M455.696 281.623L468.701 281.716" stroke="#505050" stroke-width="0.75" stroke-linecap="round" stroke-linejoin="round"/>
<path d="M491.74 281.623L504.746 281.716" stroke="#505050" stroke-width="0.75" stroke-linecap="round" stroke-linejoin="round"/>
<path d="M480.172 256.463L480.271 269.831" stroke="#505050" stroke-width="0.75" stroke-linecap="round" stroke-linejoin="round"/>
<path d="M480.171 293.509L480.27 306.876" stroke="#505050" stroke-width="0.75" stroke-linecap="round" stroke-linejoin="round"/>
<path d="M462.834 263.846L472.126 273.316" stroke="#505050" stroke-width="0.75" stroke-linecap="round" stroke-linejoin="round"/>
<path d="M488.363 290.032L497.655 299.502" stroke="#505050" stroke-width="0.75" stroke-linecap="round" stroke-linejoin="round"/>
<path d="M497.564 263.901L488.405 273.209" stroke="#505050" stroke-width="0.75" stroke-linecap="round" stroke-linejoin="round"/>
<path d="M472.093 290.09L462.926 299.447" stroke="#505050" stroke-width="0.75" stroke-linecap="round" stroke-linejoin="round"/>
<path d="M90.4704 414.84L122.617 382.156" stroke="#505050" stroke-width="0.75" stroke-linecap="round" stroke-linejoin="round"/>
<path d="M90.2993 381.979L122.835 415.026" stroke="#505050" stroke-width="0.75" stroke-linecap="round" stroke-linejoin="round"/>
<path d="M368.332 505.58L362.164 500.396L367.174 494.2" stroke="#505050" stroke-width="0.75" stroke-linecap="round" stroke-linejoin="round"/>
<path d="M362.086 500.461C363.925 499.9 365.874 499.786 367.778 500.127C370.158 500.57 372.364 501.719 374.121 503.428C375.875 505.136 377.1 507.33 377.641 509.729C378.182 512.131 378.013 514.628 377.157 516.911C376.299 519.191 374.791 521.154 372.827 522.548C370.862 523.941 368.524 524.706 366.113 524.744C363.701 524.779 361.323 524.088 359.277 522.755C357.233 521.422 355.613 519.508 354.625 517.256C353.637 515.001 353.322 512.511 353.723 510.096" stroke="#505050" stroke-width="0.75" stroke-linecap="round" stroke-linejoin="round"/>
<path d="M163.674 228.975C175.233 240.184 201.769 238.226 241.801 236.405" stroke="#505050" stroke-width="0.75" stroke-linecap="round" stroke-linejoin="round"/>
<path d="M250.906 214.993C248.017 215.049 245.24 215.758 245.234 217.979C245.227 220.531 249.439 224.36 263.204 228.14C279.069 232.494 285.464 231.478 286.042 229.016C286.496 227.083 283.461 224.308 278.271 222.659" stroke="#505050" stroke-width="0.75" stroke-linecap="round" stroke-linejoin="round"/>
<path d="M263.314 162.396C273.974 164.117 271.647 185.834 259.842 183.612C249.273 181.633 252.856 160.697 263.314 162.396Z" stroke="#505050" stroke-width="0.75" stroke-linecap="round" stroke-linejoin="round"/>
<path d="M277.807 231.029C278.838 221.322 282.386 177.835 283.741 169.736C285.089 161.686 292.505 152.241 294.512 149.927C296.693 147.411 297.226 144.229 298.217 136.402C298.65 132.983 295.978 132.382 292.344 139.719C289.078 146.307 279.797 150.602 282.373 137.23C283.875 129.458 286.93 118.864 287.672 115.962C289.195 109.991 286.06 108.873 283.14 115.126C280.321 120.922 277.815 126.871 275.635 132.948" stroke="#505050" stroke-width="0.75" stroke-linecap="round" stroke-linejoin="round"/>
<path d="M276.457 131.797C277.109 124.03 278.686 114.576 279.131 111.611C280.037 105.584 276.718 104.917 274.529 111.309C272.279 117.883 269.348 128.134 268.492 132.372" stroke="#505050" stroke-width="0.75" stroke-linecap="round" stroke-linejoin="round"/>
<path d="M269.458 128.752C269.395 121.024 269.863 115.599 270.009 112.66C270.332 106.574 266.929 106.291 265.41 112.908C263.846 119.757 262.655 126.692 261.844 133.684" stroke="#505050" stroke-width="0.75" stroke-linecap="round" stroke-linejoin="round"/>
<path d="M262.123 131.702C261.468 124.032 261.472 120.133 261.415 117.172C261.316 111.205 258.297 111.298 257.223 117.85C256.025 124.54 255.371 131.324 255.268 138.137C255.588 143.946 258.504 161.281 258.638 163.456" stroke="#505050" stroke-width="0.75" stroke-linecap="round" stroke-linejoin="round"/>
<path d="M256.568 182.239C254.709 193.117 250.518 217.04 249.588 223.08" stroke="#505050" stroke-width="0.75" stroke-linecap="round" stroke-linejoin="round"/>
<path d="M270.002 170.844C272.368 171.28 280.389 172.023 283.483 170.73" stroke="#505050" stroke-width="0.75" stroke-linecap="round" stroke-linejoin="round"/>
<path d="M267.577 180.469C272.423 181.657 277.456 181.747 282.309 180.733" stroke="#505050" stroke-width="0.75" stroke-linecap="round" stroke-linejoin="round"/>
<path d="M245.283 218.051C244.237 222.716 241.496 237.635 241.05 239.957" stroke="#505050" stroke-width="0.75" stroke-linecap="round" stroke-linejoin="round"/>
<path d="M152.123 243.237C144.201 244.239 136.145 242.341 129.392 237.881C122.639 233.422 117.628 226.69 115.251 218.887C112.874 211.084 113.287 202.715 116.415 195.274C119.543 187.832 125.184 181.801 132.331 178.256C139.479 174.71 147.668 173.881 155.441 175.915C163.213 177.95 170.063 182.716 174.769 189.364C179.475 196.012 181.732 204.11 181.137 212.214C180.541 220.319 177.133 227.903 171.52 233.615" stroke="#505050" stroke-width="0.75" stroke-linecap="round" stroke-linejoin="round"/>
<path d="M189.265 333.157C189.495 329.403 187.688 326.292 185.222 326.164C181.885 326.009 177.389 331.608 175.268 349.649C173.25 366.81 176.16 373.663 179.662 374.041C182.576 374.357 185.854 370.441 187.139 362.736" stroke="#505050" stroke-width="0.75" stroke-linecap="round" stroke-linejoin="round"/>
<path d="M179.572 331.649C191.205 333.255 216.224 335.072 219.175 335.174C222.125 335.277 243.537 325.183 248.86 325.098C250.281 325.076 267.42 328.739 275.405 330.287C279.135 331.008 280.135 335.77 258.82 332.909" stroke="#505050" stroke-width="0.75" stroke-linecap="round" stroke-linejoin="round"/>
<path d="M253.417 330.562C259.239 333.117 269.814 336.762 277.788 339.259C281.502 340.421 279.175 345.28 256.483 338.814" stroke="#505050" stroke-width="0.75" stroke-linecap="round" stroke-linejoin="round"/>
<path d="M252.375 336.584C257.908 340.033 265.846 343.985 273.136 347.802C276.506 349.567 273.545 353.563 253.522 345.3" stroke="#505050" stroke-width="0.75" stroke-linecap="round" stroke-linejoin="round"/>
<path d="M250.913 342.547C254.11 346.498 256.968 350.224 262.301 355.967C264.791 358.646 262.148 361.168 245.885 348.38C242.91 346.04 239.673 349.596 235.681 353.056C230.427 357.611 228.169 361.8 216.26 362.049C203.124 362.332 180.867 362.549 174.754 362.304" stroke="#505050" stroke-width="0.75" stroke-linecap="round" stroke-linejoin="round"/>
<path d="M226.281 332.813C231.8 327.907 236.52 322.144 240.27 315.731C242.299 312.198 246.082 313.274 240.362 327.309" stroke="#505050" stroke-width="0.75" stroke-linecap="round" stroke-linejoin="round"/>
<path d="M156.563 325.823C163.409 326.007 178.742 325.891 185.422 326.191" stroke="#505050" stroke-width="0.75" stroke-linecap="round" stroke-linejoin="round"/>
<path d="M180.409 374.141C147.045 367.952 135.402 367.939 128.489 354.027C120.842 338.662 139.993 292.562 148.531 265.581C155.99 242.004 148.177 223.7 146.073 223.452C138.182 222.488 138.343 214.47 145.508 217.357C149.16 218.822 146.625 212.722 144.333 208.702C149.738 206.918 154.793 204.213 159.284 200.703C175.922 220.155 177.38 233.402 157.429 228.154C162.322 231.569 167.841 233.934 173.643 235.103" stroke="#505050" stroke-width="0.75" stroke-linecap="round" stroke-linejoin="round"/>
<path d="M118.393 192.543C116.585 189.264 113.83 186.62 110.508 184.976C107.187 183.332 103.461 182.767 99.8432 183.36C96.2254 183.953 92.8932 185.675 90.3051 188.288C87.717 190.901 86.0001 194.278 85.3903 197.953C84.7805 201.629 85.3078 205.423 86.8997 208.813C88.4916 212.204 91.0702 215.025 94.2804 216.889C97.4906 218.752 101.175 219.566 104.827 219.219C108.479 218.873 111.919 217.382 114.675 214.952C113.405 207.233 114.715 199.341 118.393 192.543Z" stroke="#505050" stroke-width="0.75" stroke-linecap="round" stroke-linejoin="round"/>
<path d="M167.745 325.895C173.306 313.783 180.033 302.268 187.83 291.52" stroke="#505050" stroke-width="0.75" stroke-linecap="round" stroke-linejoin="round"/>
<path d="M148.17 267.317C167.313 263.429 182.796 253.014 188.359 237.725" stroke="#505050" stroke-width="0.75" stroke-linecap="round" stroke-linejoin="round"/>
<path d="M192.158 243.031C205.576 243.003 212.094 241.654 239.577 261.336C250.057 258.756 279.586 252.233 285.488 251.359" stroke="#505050" stroke-width="0.75" stroke-linecap="round" stroke-linejoin="round"/>
<path d="M258.15 274.754C320.16 219.173 331.367 207.666 341.071 204.022C349.629 200.802 354.978 200.11 455.942 190.706" stroke="#505050" stroke-width="0.75" stroke-linecap="round" stroke-linejoin="round"/>
<path d="M460.225 199.091C459.571 192.923 457.617 189.524 455.712 189.663C452.96 189.864 450.008 197.102 449.887 214.211C449.765 232.124 452.902 239.745 455.872 240.032C458.256 240.273 460.525 236.161 460.788 228.354" stroke="#505050" stroke-width="0.75" stroke-linecap="round" stroke-linejoin="round"/>
<path d="M285.989 228.992C283.941 236.51 279.516 249.753 278.384 252.345" stroke="#505050" stroke-width="0.75" stroke-linecap="round" stroke-linejoin="round"/>
<path d="M179.235 304.157C189.094 304.166 207.309 304.129 222.595 302.622C225.601 310.216 229.817 317.276 235.075 323.513" stroke="#505050" stroke-width="0.75" stroke-linecap="round" stroke-linejoin="round"/>
<path d="M239.494 261.533C241.311 272.312 235.239 293.273 222.582 302.321" stroke="#505050" stroke-width="0.75" stroke-linecap="round" stroke-linejoin="round"/>
<path d="M273.83 336.974C307.053 339.429 340.9 279.727 360.191 251.682C393.211 247.991 434.49 242.906 455.733 241.096" stroke="#505050" stroke-width="0.75" stroke-linecap="round" stroke-linejoin="round"/>
<path d="M450.691 227.961C460.835 227.696 470.988 228.746 480.909 231.085C491.955 207.512 499.892 178.077 503.995 158.996C476.894 171.159 474.192 199.275 450.726 201.693" stroke="#505050" stroke-width="0.75" stroke-linecap="round" stroke-linejoin="round"/>
<path d="M445.268 335.665C449.711 330.212 449.589 325.009 448.148 323.941C446.001 322.351 438.15 324.967 427.504 337.295C416.356 350.217 415.071 357.928 417.051 360.006C418.67 361.719 423.264 360.763 428.296 355.32" stroke="#505050" stroke-width="0.75" stroke-linecap="round" stroke-linejoin="round"/>
<path d="M419.871 347.59C431.139 355.908 431.123 360.699 437.243 367.074C454.534 369.144 490.383 365.366 507.077 361.039C487.886 347.198 456.103 347.381 435.893 328.804" stroke="#505050" stroke-width="0.75" stroke-linecap="round" stroke-linejoin="round"/>
<path d="M448.492 323.756C434.841 308.115 385.891 257.781 376.259 249.475" stroke="#505050" stroke-width="0.75" stroke-linecap="round" stroke-linejoin="round"/>
<path d="M417.38 360.197C408.13 352.044 356.674 303.189 347.772 294.705C337.331 299.3 326.969 304.008 321.851 306.275" stroke="#505050" stroke-width="0.75" stroke-linecap="round" stroke-linejoin="round"/>
<path d="M339.585 298.344C343.421 290.854 350.828 269.428 353.845 261.537" stroke="#505050" stroke-width="0.75" stroke-linecap="round" stroke-linejoin="round"/>
<path d="M186.053 293.866C191.723 297.74 197.744 301.054 204.031 303.755" stroke="#505050" stroke-width="0.75" stroke-linecap="round" stroke-linejoin="round"/>
<path d="M188.912 428.021L179.728 427.955L179.857 444.96L189.041 445.025L188.912 428.021Z" stroke="#505050" stroke-width="0.75"/>
<path d="M201.83 428.04L192.643 427.982L192.778 444.99L201.965 445.051L201.83 428.04Z" stroke="#505050" stroke-width="0.75"/>
<path d="M214.341 428.007L205.157 427.943L205.285 444.948L214.469 445.014L214.341 428.007Z" stroke="#505050" stroke-width="0.75"/>
<path d="M227.055 428.002L217.871 427.937L217.999 444.944L227.184 445.007L227.055 428.002Z" stroke="#505050" stroke-width="0.75"/>
<path d="M239.982 428.007L230.796 427.946L230.93 444.957L240.117 445.016L239.982 428.007Z" stroke="#505050" stroke-width="0.75"/>
<path d="M252.486 427.986L243.302 427.923L243.431 444.928L252.614 444.993L252.486 427.986Z" stroke="#505050" stroke-width="0.75"/>
<path d="M265.2 427.982L256.016 427.919L256.144 444.923L265.328 444.986L265.2 427.982Z" stroke="#505050" stroke-width="0.75"/>
<path d="M277.915 427.974L268.731 427.911L268.859 444.916L278.046 444.979L277.915 427.974Z" stroke="#505050" stroke-width="0.75"/>
<path d="M290.629 427.97L281.445 427.904L281.573 444.909L290.759 444.975L290.629 427.97Z" stroke="#505050" stroke-width="0.75"/>
<path d="M303.343 427.96L294.159 427.897L294.288 444.902L303.474 444.965L303.343 427.96Z" stroke="#505050" stroke-width="0.75"/>
<path d="M316.058 427.953L306.874 427.89L307.002 444.895L316.188 444.961L316.058 427.953Z" stroke="#505050" stroke-width="0.75"/>
<defs>
<linearGradient id="paint0_linear_205_598" x1="267.763" y1="181.515" x2="243.69" y2="176.487" gradientUnits="userSpaceOnUse">
<stop stop-color="#0066FF"/>
<stop offset="0.299296" stop-color="#7044CE" stop-opacity="0.936844"/>
<stop offset="0.799113" stop-color="#FF006B" stop-opacity="0.81"/>
<stop offset="1" stop-color="#FF006B" stop-opacity="0"/>
</linearGradient>
<linearGradient id="paint1_linear_205_598" x1="432.614" y1="334.789" x2="104.006" y2="256.49" gradientUnits="userSpaceOnUse">
<stop stop-color="#0066FF"/>
<stop offset="0.299296" stop-color="#7044CE" stop-opacity="0.936844"/>
<stop offset="0.799113" stop-color="#FF006B" stop-opacity="0.81"/>
<stop offset="1" stop-color="#FF006B" stop-opacity="0"/>
</linearGradient>
<linearGradient id="paint2_linear_205_598" x1="188.563" y1="443.276" x2="171.084" y2="439.735" gradientUnits="userSpaceOnUse">
<stop stop-color="#0066FF"/>
<stop offset="0.299296" stop-color="#7044CE" stop-opacity="0.936844"/>
<stop offset="0.799113" stop-color="#FF006B" stop-opacity="0.81"/>
<stop offset="1" stop-color="#FF006B" stop-opacity="0"/>
</linearGradient>
<linearGradient id="paint3_linear_205_598" x1="201.486" y1="443.305" x2="183.994" y2="439.761" gradientUnits="userSpaceOnUse">
<stop stop-color="#0066FF"/>
<stop offset="0.299296" stop-color="#7044CE" stop-opacity="0.936844"/>
<stop offset="0.799113" stop-color="#FF006B" stop-opacity="0.81"/>
<stop offset="1" stop-color="#FF006B" stop-opacity="0"/>
</linearGradient>
<linearGradient id="paint4_linear_205_598" x1="213.993" y1="443.264" x2="196.513" y2="439.723" gradientUnits="userSpaceOnUse">
<stop stop-color="#0066FF"/>
<stop offset="0.299296" stop-color="#7044CE" stop-opacity="0.936844"/>
<stop offset="0.799113" stop-color="#FF006B" stop-opacity="0.81"/>
<stop offset="1" stop-color="#FF006B" stop-opacity="0"/>
</linearGradient>
<linearGradient id="paint5_linear_205_598" x1="226.707" y1="443.26" x2="209.227" y2="439.719" gradientUnits="userSpaceOnUse">
<stop stop-color="#0066FF"/>
<stop offset="0.299296" stop-color="#7044CE" stop-opacity="0.936844"/>
<stop offset="0.799113" stop-color="#FF006B" stop-opacity="0.81"/>
<stop offset="1" stop-color="#FF006B" stop-opacity="0"/>
</linearGradient>
<linearGradient id="paint6_linear_205_598" x1="239.639" y1="443.272" x2="222.147" y2="439.729" gradientUnits="userSpaceOnUse">
<stop stop-color="#0066FF"/>
<stop offset="0.299296" stop-color="#7044CE" stop-opacity="0.936844"/>
<stop offset="0.799113" stop-color="#FF006B" stop-opacity="0.81"/>
<stop offset="1" stop-color="#FF006B" stop-opacity="0"/>
</linearGradient>
<linearGradient id="paint7_linear_205_598" x1="252.137" y1="443.243" x2="234.659" y2="439.703" gradientUnits="userSpaceOnUse">
<stop stop-color="#0066FF"/>
<stop offset="0.299296" stop-color="#7044CE" stop-opacity="0.936844"/>
<stop offset="0.799113" stop-color="#FF006B" stop-opacity="0.81"/>
<stop offset="1" stop-color="#FF006B" stop-opacity="0"/>
</linearGradient>
<linearGradient id="paint8_linear_205_598" x1="264.851" y1="443.238" x2="247.373" y2="439.698" gradientUnits="userSpaceOnUse">
<stop stop-color="#0066FF"/>
<stop offset="0.299296" stop-color="#7044CE" stop-opacity="0.936844"/>
<stop offset="0.799113" stop-color="#FF006B" stop-opacity="0.81"/>
<stop offset="1" stop-color="#FF006B" stop-opacity="0"/>
</linearGradient>
<linearGradient id="paint9_linear_205_598" x1="277.568" y1="443.232" x2="260.086" y2="439.691" gradientUnits="userSpaceOnUse">
<stop stop-color="#0066FF"/>
<stop offset="0.299296" stop-color="#7044CE" stop-opacity="0.936844"/>
<stop offset="0.799113" stop-color="#FF006B" stop-opacity="0.81"/>
<stop offset="1" stop-color="#FF006B" stop-opacity="0"/>
</linearGradient>
<linearGradient id="paint10_linear_205_598" x1="290.282" y1="443.225" x2="272.801" y2="439.684" gradientUnits="userSpaceOnUse">
<stop stop-color="#0066FF"/>
<stop offset="0.299296" stop-color="#7044CE" stop-opacity="0.936844"/>
<stop offset="0.799113" stop-color="#FF006B" stop-opacity="0.81"/>
<stop offset="1" stop-color="#FF006B" stop-opacity="0"/>
</linearGradient>
<linearGradient id="paint11_linear_205_598" x1="302.997" y1="443.218" x2="285.515" y2="439.677" gradientUnits="userSpaceOnUse">
<stop stop-color="#0066FF"/>
<stop offset="0.299296" stop-color="#7044CE" stop-opacity="0.936844"/>
<stop offset="0.799113" stop-color="#FF006B" stop-opacity="0.81"/>
<stop offset="1" stop-color="#FF006B" stop-opacity="0"/>
</linearGradient>
<linearGradient id="paint12_linear_205_598" x1="315.711" y1="443.211" x2="298.229" y2="439.67" gradientUnits="userSpaceOnUse">
<stop stop-color="#0066FF"/>
<stop offset="0.299296" stop-color="#7044CE" stop-opacity="0.936844"/>
<stop offset="0.799113" stop-color="#FF006B" stop-opacity="0.81"/>
<stop offset="1" stop-color="#FF006B" stop-opacity="0"/>
</linearGradient>
<linearGradient id="paint13_linear_205_598" x1="416.63" y1="435.058" x2="27.4817" y2="288.506" gradientUnits="userSpaceOnUse">
<stop stop-color="#0066FF"/>
<stop offset="0.299296" stop-color="#7044CE" stop-opacity="0.936844"/>
<stop offset="0.799113" stop-color="#FF006B" stop-opacity="0.81"/>
<stop offset="1" stop-color="#FF006B" stop-opacity="0"/>
</linearGradient>
<linearGradient id="paint14_linear_205_598" x1="396.047" y1="155.658" x2="321.938" y2="139.847" gradientUnits="userSpaceOnUse">
<stop stop-color="#0066FF"/>
<stop offset="0.299296" stop-color="#7044CE" stop-opacity="0.936844"/>
<stop offset="0.799113" stop-color="#FF006B" stop-opacity="0.81"/>
<stop offset="1" stop-color="#FF006B" stop-opacity="0"/>
</linearGradient>
<linearGradient id="paint15_linear_205_598" x1="459.476" y1="201.06" x2="446.412" y2="198.386" gradientUnits="userSpaceOnUse">
<stop stop-color="#0066FF"/>
<stop offset="0.299296" stop-color="#7044CE" stop-opacity="0.936844"/>
<stop offset="0.799113" stop-color="#FF006B" stop-opacity="0.81"/>
<stop offset="1" stop-color="#FF006B" stop-opacity="0"/>
</linearGradient>
<linearGradient id="paint16_linear_205_598" x1="458.688" y1="238.326" x2="443.711" y2="235.142" gradientUnits="userSpaceOnUse">
<stop stop-color="#0066FF"/>
<stop offset="0.299296" stop-color="#7044CE" stop-opacity="0.936844"/>
<stop offset="0.799113" stop-color="#FF006B" stop-opacity="0.81"/>
<stop offset="1" stop-color="#FF006B" stop-opacity="0"/>
</linearGradient>
<linearGradient id="paint17_linear_205_598" x1="447.149" y1="333.681" x2="428.952" y2="329.616" gradientUnits="userSpaceOnUse">
<stop stop-color="#0066FF"/>
<stop offset="0.299296" stop-color="#7044CE" stop-opacity="0.936844"/>
<stop offset="0.799113" stop-color="#FF006B" stop-opacity="0.81"/>
<stop offset="1" stop-color="#FF006B" stop-opacity="0"/>
</linearGradient>
<linearGradient id="paint18_linear_205_598" x1="426.772" y1="360.003" x2="409.909" y2="356.366" gradientUnits="userSpaceOnUse">
<stop stop-color="#0066FF"/>
<stop offset="0.299296" stop-color="#7044CE" stop-opacity="0.936844"/>
<stop offset="0.799113" stop-color="#FF006B" stop-opacity="0.81"/>
<stop offset="1" stop-color="#FF006B" stop-opacity="0"/>
</linearGradient>
<linearGradient id="paint19_linear_205_598" x1="345.643" y1="301.709" x2="310.634" y2="294.948" gradientUnits="userSpaceOnUse">
<stop stop-color="#0066FF"/>
<stop offset="0.299296" stop-color="#7044CE" stop-opacity="0.936844"/>
<stop offset="0.799113" stop-color="#FF006B" stop-opacity="0.81"/>
<stop offset="1" stop-color="#FF006B" stop-opacity="0"/>
</linearGradient>
<linearGradient id="paint20_linear_205_598" x1="281.415" y1="180.815" x2="260.207" y2="175.898" gradientUnits="userSpaceOnUse">
<stop stop-color="#0066FF"/>
<stop offset="0.299296" stop-color="#7044CE" stop-opacity="0.936844"/>
<stop offset="0.799113" stop-color="#FF006B" stop-opacity="0.81"/>
<stop offset="1" stop-color="#FF006B" stop-opacity="0"/>
</linearGradient>
<linearGradient id="paint21_linear_205_598" x1="285.15" y1="230.931" x2="272.505" y2="228.103" gradientUnits="userSpaceOnUse">
<stop stop-color="#0066FF"/>
<stop offset="0.299296" stop-color="#7044CE" stop-opacity="0.936844"/>
<stop offset="0.799113" stop-color="#FF006B" stop-opacity="0.81"/>
<stop offset="1" stop-color="#FF006B" stop-opacity="0"/>
</linearGradient>
<linearGradient id="paint22_linear_205_598" x1="249.548" y1="221.595" x2="242.007" y2="220.076" gradientUnits="userSpaceOnUse">
<stop stop-color="#0066FF"/>
<stop offset="0.299296" stop-color="#7044CE" stop-opacity="0.936844"/>
<stop offset="0.799113" stop-color="#FF006B" stop-opacity="0.81"/>
<stop offset="1" stop-color="#FF006B" stop-opacity="0"/>
</linearGradient>
<linearGradient id="paint23_linear_205_598" x1="184.555" y1="372.793" x2="166.921" y2="368.903" gradientUnits="userSpaceOnUse">
<stop stop-color="#0066FF"/>
<stop offset="0.299296" stop-color="#7044CE" stop-opacity="0.936844"/>
<stop offset="0.799113" stop-color="#FF006B" stop-opacity="0.81"/>
<stop offset="1" stop-color="#FF006B" stop-opacity="0"/>
</linearGradient>
<linearGradient id="paint24_linear_205_598" x1="188.803" y1="332.466" x2="174.599" y2="328.95" gradientUnits="userSpaceOnUse">
<stop stop-color="#0066FF"/>
<stop offset="0.299296" stop-color="#7044CE" stop-opacity="0.936844"/>
<stop offset="0.799113" stop-color="#FF006B" stop-opacity="0.81"/>
<stop offset="1" stop-color="#FF006B" stop-opacity="0"/>
</linearGradient>
<linearGradient id="paint25_linear_205_598" x1="202.001" y1="306.348" x2="167.42" y2="296.374" gradientUnits="userSpaceOnUse">
<stop stop-color="#0066FF"/>
<stop offset="0.299296" stop-color="#7044CE" stop-opacity="0.936844"/>
<stop offset="0.799113" stop-color="#FF006B" stop-opacity="0.81"/>
<stop offset="1" stop-color="#FF006B" stop-opacity="0"/>
</linearGradient>
<linearGradient id="paint26_linear_205_598" x1="171.179" y1="236.032" x2="30.9405" y2="201.481" gradientUnits="userSpaceOnUse">
<stop stop-color="#0066FF"/>
<stop offset="0.299296" stop-color="#7044CE" stop-opacity="0.936844"/>
<stop offset="0.799113" stop-color="#FF006B" stop-opacity="0.81"/>
<stop offset="1" stop-color="#FF006B" stop-opacity="0"/>
</linearGradient>
</defs>
</svg>
