<svg width="221" height="18" viewBox="0 0 221 18" fill="none" xmlns="http://www.w3.org/2000/svg">
<path d="M220 5.35472C174.708 4.16936 129.805 1.95913 84.4304 1.46726C58.3482 1.18452 -19.6509 0.356863 6.16666 1.95319C48.6025 4.57703 92.4606 4.49272 135.187 6.25718C151.742 6.94084 168.163 7.85721 184.634 8.8257C190.972 9.1984 195.923 9.82821 185.78 9.58931C140.512 8.52305 95.4792 6.1535 50.2104 5.00764C45.3796 4.88536 31.067 4.82576 35.7202 5.38943C52.7765 7.45559 71.0747 8.26958 88.5236 9.41576C109.535 10.796 130.887 11.658 151.724 13.4768C159.209 14.1301 169.233 14.334 176.202 15.6635C188.533 18.0162 149.198 16.5692 135.678 16.4618C113.177 16.2831 90.7025 15.7324 68.221 15.3511" stroke="url(#paint0_linear_218_1587)" stroke-width="0.5" stroke-linecap="round"/>
<defs>
<linearGradient id="paint0_linear_218_1587" x1="206.161" y1="14.1624" x2="-4.59152" y2="-141.645" gradientUnits="userSpaceOnUse">
<stop stop-color="#0066FF"/>
<stop offset="0.299296" stop-color="#7044CE" stop-opacity="0.936844"/>
<stop offset="0.799113" stop-color="#FF006B" stop-opacity="0.81"/>
<stop offset="1" stop-color="#FF006B" stop-opacity="0"/>
</linearGradient>
</defs>
</svg>
